<mxfile host="app.diagrams.net" agent="Mozilla/5.0 (X11; Ubuntu; Linux x86_64; rv:136.0) Gecko/20100101 Firefox/136.0" version="26.2.12">
  <diagram name="Страница — 1" id="CReqdoa6T5mNTU-o00r5">
    <mxGraphModel dx="2829" dy="1155" grid="1" gridSize="10" guides="1" tooltips="1" connect="1" arrows="1" fold="1" page="1" pageScale="1" pageWidth="827" pageHeight="1169" background="none" math="0" shadow="0">
      <root>
        <mxCell id="0" />
        <mxCell id="1" parent="0" />
        <mxCell id="vG5wx0nCRTF6qHrkoxWq-1" value="" style="shape=image;verticalLabelPosition=bottom;labelBackgroundColor=default;verticalAlign=top;aspect=fixed;imageAspect=0;image=data:image/png,iVBORw0KGgoAAAANSUhEUgAAA+oAAAEvCAYAAADSJDv8AAAABHNCSVQICAgIfAhkiAAAABl0RVh0U29mdHdhcmUAZ25vbWUtc2NyZWVuc2hvdO8Dvz4AAAAuaVRYdENyZWF0aW9uIFRpbWUAAAAAANCS0YIgMTUg0LDQv9GAIDIwMjUgMTc6MTE6MzkACHQAAAAgAElEQVR4nOzdd3xV9f3H8dc5N3tPEiCM7LBH2A4QFNnTqr9WrXv+al2t1o2jw1pbW22rrVV/rtqKgAKKA1FAQPZK2CtAEsgie91zfn+QccMIAQK5Ie/n48EfJPeee+6955yc93d8vkZySpyNiIiIiIiIiLgFs6V3QERERERERETqKaiLiIiIiIiIuBEFdRERERERERE3oqAuIiIiIiIi4kYU1EVERERERETciIK6iIiIiIiIiBtRUBcRERERERFxIwrqIiIiIiIiIm5EQV1ERERERETEjSioi4iIiIiIiLgRBXURERERERERN6KgLiIiIiIiIuJGFNRFRERERERE3IiCuoiIiIiIiIgbUVAXERERERERcSMK6iIiIiIiIiJuREFdRERERERExI0oqIuIiIiIiIi4EQV1ERERERERETeioC4iIiIiIiLiRhTURURERERERNyIgrqIiIiIiIiIG1FQFxEREREREXEjCuoiIiIiIiIibkRBXURERERERMSNKKiLiIiIiIiIuBEFdRERERERERE3oqAuIiIiIiIi4kYU1EVERERERETciIK6iIiIiIiIiBtRUBcRERERERFxIwrqIiIiIiIiIm5EQV1ERERERETEjSioi4iIiIiIiLgRBXURERERERERN6KgLiIiIiIiIuJGFNRFRERERERE3IiCuoiIiIiIiIgbUVAXERERERERcSMK6iIiIiIiIiJuREFdRERERERExI0oqIuIiIiIiIi4EQV1ERERERERETeioC4iIiIiIiLiRhTURURERERERNyIgrqIiIiIiIiIG1FQFxEREREREXEjCuoiIiIiIiIibkRBXURERERERMSNKKiLiIiIiIiIuBEFdRERERERERE3oqAuIiIiIiIi4kYU1EVERERERETciIK6iIiIiIiIiBtRUBcRERERERFxIx4tvQPuyPSMplNoPO0Dogjy8MGkhNKKAg4f2cKeI9mU2S29hyIiIiIiInKhUlCv40NE1DiuiB/LwHad8DOMEzzGxqo6wNb9n/PtzvmsLyqhsczuCL+dpy+ZTuSJNnUarLI5/HHBX9le+2Keo7h77C/p7Ti77Z6QnceS76/n3UPV52Dj54InKTe/xovTOx0dHmIVsvQPN/PrRUca/W7OFTP5Nl578Wo61oxVsYoWMOO6F1nZlI/TCGXMM+9xb3/Pmh9Us+Fv1/Po3BwsADOaab97k1u7n4vT1mLfv+/h7veKmXKuX+OdHUffDwAOYq76E3+7KYXGDmfbsnBWlVFcmMvhg3vZsWU9a5YvZeW2HCrPwZ7W8hv0EK89cSXhJoCTw/Mf445XV1PehOea3qHEJHSjW0oPUrp3o1tyIh1DfHDUXg+qfuCl6x/nqyJ3b/kz8Y+KJzmlB926dSMlpTvJsVEEeNS+ESeZM+/n9n+l42zR/RQRERG5cCioA6Z3b0b3e5Dx7aPxbPSRBqZnDN1ibyWl6zR27Pob/7fxOw67+332BcwIuogpV3Ssm8PhzPqCWd+3TEiXc8cwTTy8/QmJ9CcksjOJfS5h7NV3kJu+gPde+xcLdhQ1/3duRjNqyqWE1RxcdtUO5n2yrvGQ7ujE8J/+hMt79zgmzLY2BoE9p3LjlIvokZxIx1Df+gYGERERETnn2vwcdYf/KG4c/msmnzCkWzid5VTa9nEhwDDCSIy9ggRP3b22HAcdr5jKkMDaJFVO2qdz2HIuu1jFfRiehHefwM9e+DMPjGjf7K2OnkmTmNjLl6NnuEXxipks2H+KPmMzhgFjRpKaGN2KQzqASXDKZYwe2pvOYQrpIiIiIudbm+5RN7wHcPXQ+xno70n9fWg5h7Pm8/WeRWzK3UVuZRW24YmPVxQdIlLp2/FyhnZIJPCEQ+MbZ1fvZM2eteSfZtefVbWZ/AY/2Mu6XR9xqNFnGXiHDOeiyIi61hirZBWLD+6hqtHnlbKztJX0R/v0ZtL4ZLxqvgqrYAmzvs52GVZ9gbFL2f7tx3y8pfFjzwjpyeUjulHXflG1j+XzV5B5ioyZn5YPdtW5f41TcO5ZyHuLdjf8Hk1PfAPCiI7tRu8ecYR61e+f4R3DyJ8/Q0HOvbyxqeyU228SI4ihk6+kQ93Jk8mXc5Zy5ExPDduiLP8IhITi26qbR22symKOVPgQEuh63RQRERGR5tR2g7oRRv/eD3CJy82m7dzHsrUz+HfG/obzXu0qyiv2s+vAfnYd+JTPgy5lTO87uDzs9F7Srk7nu83/YOvZJknnDr7ftOMUDzIJT0hmWGRE3U+sou/4dNMCis/y5d2DSfil07msXc3MZtvJvgUfsbKklTQynAm7kI1z/8HGUzzMTLiJ1BHdCKz9QeVWvnjzdVY03kJT53y8RmOc+5cx67+LqDjJ7z3CezLulge46dJOeNecvIZXFybdcRXf3PcOu5phorQjZgxThgbWNHLZVGyexdzTGKphVxeStXMraVs2sSU9jfT0LeypuJSn3vkFA1tTULedlOdlsH1LGunpm0hLTyN9ZzYdr3+D30/v0GhdARERERE5c202qPtE/oSpHcPrx/7buaxb9zjvZpyqR9aitHARHy9NY0f30RgXcC50a444xk4agF9NULPLVjN7/m4Vs2oDqnM38cmLD5Jd8TJPXNEe0wAw8OwyjrE9P+TV9Wc798GXXhMnkVg7rcXKZ8nsr8huSgObcwv/feI23tizj4KKhhcHI/Akz3FLFjlLXua+xZnszi455pqoeC4iIiJyrrWmvp3mY0QxJOlywuvGbVoUZf6DD/adxrBp+xAbNr/L+iol9fPPwH/gNMZ0cdSMhnBy+JuZfJd7wQ56l2NZ+fzw5r/4vtjlO3eE0j814axjpBk+gqmXtavZjo1z73xmr2x8hQfX/dq3de9xIb31sSnP2sHO40K6iIiIiJwPbTKom0FXcHGET/38SjuDpdu+o7Ald0qazoxm5JRLCK2bH72deZ+ub9KSWXLhsAt/YMm6cpcA7SCiaxcCzmritIPYcVPp71s7VKOU1Z/MY7eGaoiIiIjIedQGg7qD6OhhtHe5mXceWcSKAt2JtxZeKZOY3MOnvhr38o9OXY1bLkDlHDhwqEFPtxkcSvBZXNUM/8FMubJLXZVz5+Gvmf1djnqVRUREROS8antB3QglqV1nlzdukXN4NdmtfaRqW2EEM3TKaKLrqnEf5IvZ31Oo768NMqiqrGo4JN00z+KiZhI1ahoXh9QN1WD73Dls1FANERERETnP2l5QNxOJDfZwWVaojH15e9Vj1ko4YsYxdVB9Ne7yTXOYu60ZSo1LqxQcGtLg/3ZZGeVn2mjj1Y0JE3vWVZK3ipYy+8sMFSgUERERkfOuzQV10zeGKA+Xce92FlnFCnqtgw99Jk8gvq4adx5LZn/ZtGrccuFxdKJnjzCX4nE25YcyyT+j48EgeNh0roiu3ZrFwS8/ZpmGaoiIiIhIC2hzy7MZvlE06IOzc8gtOz9Jz/DozmU976LP6dz7G+Xs3v02K4uURs2IkUwdEVlfjXvP0Wrc7szw7sbYW++mf5O+Pi+6xLS5trMzZBA08GrGdHGp8W5XsWvLds6o2c3RiSsnDyGgdtR7+QY+nbf1zLYlIiIiInKW2lxQN71D8HftUHcWUeo8P71mhkccfePjTvNZRSw/9K6COg7ixk6ln88x1bjd/GMxvDozZGLnlt6NC4xJYLdrePhno4h0zekVG/h2ee4ZTWPx6TOd8fGedQUK85bMZKGGaoiIiIhIC2ljQd3A0+GN6+pNtrOCyhbbH2kqI2AIU8Z0xqytxn3oK2Z9l9u0ta2l9TM98PEPo31cDwZcOpFJo3oS7tmgxY0DCz7gm5wzCNdmBJdNuYwIR+2mdvP5nB9w77EaIiIiInIha2NBHRyGo+EP7GqsRtKeR/QveGHo5fid7AHWBv79xcMsOk/D59smk+hR07modt0tu5Lt8+awqaJl90rODa+LH2PWvMdO4xkWJVvf5aX/28CZFGj3iJ/I5H61y/3ZlK76mM/cfaiGiIiIiFzQ2lxQd9rH1HA2PI720p6HrlmrfC4vL/gLW5UBTo93TyZN7O5SjXsZs77Y3yqqcVtFC5hx3YusrG7Cg41QxjzzHvf29zzn+3XBsMvJ/P5NXvjzLLaeSUo3Ahk0eRwxdUM1slg4+zvyNFRDRERERFpQGwvqNlXOigZzWA2HN4pF7swg5KLpjIqqr8Z94MuZLC9Skmq7bOzKfHatXcyXc2eyYE0mZzq4woy+ginDguuW+6vcPpdPNmvhdBERERFpWW0sqINVcYQyG7xqOtAM0x9/B5ysApVV/C3zNu2jbjqsEU73+Ikkeas693lhdmHM5EH411XjXs+nc1WN+0Lm3LOQ9xbtdjklbWzLwlldQUlhLoczM9i1O4OCirNtrPGmx8QpdKsbqlHIstmfcbA1DNUQERERkQtamwvqdvkh8oHg2h+YYYT4OKDqxHfnVvEPfL39h/ofGEn4dJpIkve53lMB8O03lXGxHvXVuL+bycJDmjtwIXPuX8as/y46417ypjJCLmXKqKi6dditAwuYs7xIBQpFREREpMW1uW5hq3Q/h6tdb8U7EOXvOOnjpQWZ7bhs6kjCXapxf/bJSkpbdq/kgmDSecw0BtYP1WD9p3PYpqEaIiIiIuIG2lxQx9rBnkKX3nPDj5jgDm3wg3B/HgkTmdSnvhp3ycqP+GyPetOlGfimMmVcLB61o97zvmH2N4fOaA12EREREZHm1vbyqX2YbTkHXG7ITdq360Ow0chz5PwzghgyZSwxtUeoM5tvZi8hX+OS5ayZRF42neFhtUM1qtk9fxarNVRDRERERNxE2wvqWBzIXMahusBn4Ai9lFT/NvhRuDFH+yuZOjSovhr3tk+Yk6Zq3NIMPJOYMLEfPjWNc3bpSmYv2KPedBERERFxG22umByAVfAl3xdMZ2qoJwZgOLoxPL4Xi9evP+cFrKQpfOg+aSJJtaX5rSMsm7WATFXjlrNmEDh4OqPrh2qQ/fVMlrT6oRo+xKReQkqo69Agm7z071hzQFc1ERERkdamTQZ17AMs3baYUYNG1gx5dxDR9R4mHniAmTnFqvrcwozQS5g2Mrq+Gvf+z5m9olDfi5w9R0dGTxlGUG0NuYotzP10U+tvoDP96Tv9Ae7u43pJr2LtK6tZe6BC546IiIhIK9NGx3vblGS+zdzsorrhrobZhZGDn2ZCZGjjH4rpg7ep295zx6TrmGkM8Ksdl1zO+k8+YXt1y+6VXBi8e0xmfJJX3XJ/R5bN5EsN1RARERERN9M2e9QB7CyWrHuFpOEPM8DXxABMr16Mu+h1emXMZuG+paTn7+NItQWYeHq1p0vUcIYnTif1DJdzMzy6c1nPu+hzujnfKGf37rdZWdQGZtH6DWTK2DgcNTndmbuQjxcd1vxhOXtGOJdMuZyo2hpy1n6+mLOMomZtdzMI7jONHw2uX5+9jmcnOrm2ApqdGHHDXcQftyRcNfu+fYfPtpY1546dPrMLl90wrn4KSv0vCO0RRP1PDQL7TOf22/OOO0+twnV8+t/vyVJbiIiIiMhpabtBHbDLFvHOshB8h91BD5+jYd0wgujc+QZu7HwDNhZOZwXVeOHlcJygp92itGAteyubFiMNjzj6xsedwZ4WsfzQu20gqJtEjbyKS8JqxyVXs+ezWaxt4bwiFwYzdhyTB/jXLfdXse5j5u1o7qEaJoGJI5g8OeX4oH4sR3v6j5tK/+N+UcXqPR/y+daylh2y7uhA/3FTGeV/qiUxTAIShjMx4fjfOLMslv73e7LOyQ6KiIiIXLja6ND3epVHZvP3757lq9z843qDDEw8HL74nCCk23YBu3b+jheWvM9u9RY1D88UJkzsXVeN2yr5gVmf71VvujQDfwZMHkds/VANFs1eyGEdXCIiIiLihtp0j3qt6pLvmbl4I8s7TuKKuCvpH9YOL+NEvUg2VvUhdh78nEU7PmXNkSIVaWo2BkFDpnJFh4bVuJcW6BOWs2dGXc7Ui8Prlvur3j2X2RqqISIiIiJuykhOiVMSOoaHd2e6hMbR3j+SAA9PTLuSsooccop3sqdgP0VOfWTNztGJq174OzelHC30ZVds4p/3PMQsFfqSs+ZJys2v8eL0TkeDulXE93+8hecX5quhTURERETcknrUT6C6Yh87s/axs6V3pA3x6TmFCYku1bi//4gvVYFKmoERNIypozvWTV9xZn/J7KUK6SIiIiLivtr8HHVxA2YEl04dRWRdNe4MFsxZQbGSlJw1BzGjpzMkoG7hdNI/nU1aq184XUREREQuZArq0uIcXcczub9fXTXu8rWzmLdTC6dLM/Dpw6TxSXjWFig8spjZX2epQKGIiIiIuDXNURcRERERERFxI+pRFxEREREREXEjCuoiIiIiIiIibkRBXURERERERMSNKKiLiIiIiIiIuBEFdRERERERERE3oqAuIiIiIiIi4kYU1EVERERERETciIK6iIiIiIiIiBtRUBcRERERERFxIwrqIiIiIiIiIm5EQV1ERERERETEjSioi4iIiIiIiLgRBXURERERERERN+LR0jsgItKSHJ2u5Q+v3kKSA8Cm6KsnuO6PK6g6g22ZcT/llZevo2tNE2jVqj9w/dOfU2g34w6flCdDHvyIJ0b6YQA403jjjgeYmek8Hy8uIiIiIs1IPeoiIiIiIiIibqQN9qgHMGTIB9zY3qvm/9Xs2nQrv9+eSVM6vRzhd/PsJZMJM47+3yqfy8sL/sJW61ztr4iIiIiIiLQlbTCoS7MwB3HD2BkM8zo6KMNZ8BbPLfqAzPMyxFdEREREROTCpaAuIm2aXV1C3qFsDtXMUS8uLG/S6Br3Y1NRdIhDh3xr5qjnU2K1znciIiIi0tYpqItIm2Zlfsozt37a0rvRDKpZ+/pt3PR6S++HiIiIiJwtFZMTERERERERcSMK6iIiIiIiIiJuREFdRERERERExI1ojvp550lAYDKxIZ2J8A3CxwRndSEFJRlk5G0lq6KyWQpZeXh3onNoHNF+4QR6euOwq6l0llBUmkl20W4OFBdQ1QyvI83A9CM6sScpsR0JD/LFrCohP3s329O2sLegsqX3TqRFeAR2ID4xgZj2EYT6++JhVVBSlEvW3h1s27WfI5VneqU08A7rSlJSPDFRYQT5emJXFVN4OJO9O9PZfqCI6rPacx/a9RhMakI0gWYRB7euZmV6NhV1u2vgE9WdAf260SHEg8q8faSvWc3WnIqzelURERG5sCiony9GCHFd/odxCZfTPTDghEMZbLuUnJyFfJ3+Potzc3Ge9ot4Eho5gfHJkxkQEY2PYZzkcRaVFRnsyl7Kyn0LWHk4i5PFQcN7LD8bcx/dTzH2whFyI09NubGRR1SyftXV/C2j7NRvo+Ee4N8lldQuAdS/Gxvnoc18vyUH91++3oN+97zLs+PCj37n1j4+vP823t5hgRlE8ugbuOma0fSM9MU85uuyrUIyfpjL+29/yOJ9pQ0bcMx2TPrN29zZs+YUrvyWX1/9HEtO1frifzlPvvswQ7yO/rd6/V+46fFPyD1vH6RB8OjneOveQXgbgF3Ct7+5lt8tLT+rrZpR0/jt63dx9OOwOPLF4/z05ZUNj2ufETz+wWMM82psSzZFXz3BdX9ccd4ashzhQ7h9xqNMiK2p1m5XkbnoDzz+p6/JPGFiNIm//nVevrZL40OinGm8cccDzMw8/StJizED6DpsMtMmXMnQHtH4H3tSAGDjLM0ibdkXzJ/9CUt2FTbxWulJZJ+JXPs/U7isRzQ+J9q27aRo/0q+nPkOH369jaJGz4uG34Mzaya/emgxPR54nJ/0i8CjdvN2FYdXvsGzL8xkR3kgPa5+jEd+3J9wD5crWmUWy9+Ywe/n7uDszgQRERG5UCionweGd2/GD3yUcZGhjd5YG4YfkZETuCZiOIN2/JbXNq/iSFM7jYwwevR4mlsSkvA7aUCvZeLl3YWUzl1IivTn0IK/st1tV3EyaHfRrfzyJ/Eun51N+XfPsGLLklYQ1E/CuytjHnqGu4a2x/MkX5dhBtF5yP9wb+lWlv3h+wtkBIRNcXoa+61BxDsAw4fE5FjMpeln9V16xacQ66h9iSq2p29rFZ+XGXkx9zzzCFd29q4J6RXs++J3PPHKYg632oP7zHi0G8r1D/ycaT3DcTR6CTNw+LWn16if0nPENIa/fDvPfX2KRjszkiG3Ps0DExMJOGH4r920g8BOQ5j284EMv+Qtfv37D0kvauLF0dGe0Q88w8j+QQ2v84YnkQNv59Gb9/Hstgk8fl0qwcf8ITC8ohly+2Ncv+cu/rFJUV1EREQ0R/3c8+jGhCHPMP6YkG7bJeQVbWd33jYyS4sb9AgZRiBxiU9wb88++DXtReiQ+Bi3JSY3COm2XUFxyS52564j/fBGdhfsI6+qupWuEX0BMUMZevez/G8jIf1C5szcTHp+baxy0C4pibCzuhKZdElJxLf2s7QySEsvdvvj3BF9Gff/+lGXkF7OrrnP8tirbS+ke3Uax6O/f5qreh0T0m2L8rwD7N6expatO9iXXUiFy9rwhsOXkGDPxjduBDPgzt/wyKSkhiHdrqY4ew/btqSzc18uZa5rzhsOwlNvYsYT1xDv3bT3YEYMZVS/QKzCDLZs3MDOw+XUbdIwiRr9EM/cPIRgw6IidzebN25ib379VCfD0YHLxw8ioA1eE0REROR46lE/p3xJ7v4QY8J864Zt23Yu23a8zkfbFpNRWRvPHfgFDmFkrzsYGxXF0Y5BHzrEP8j0w/fwblZRo6HD8L6ESUnd8an9gV3Mnj3/5KOt37CzrPyY53oTGNiNHh1GMKTzZSQ5jttcA3bFZ/x5zmfH/8IcxA1jZzDM62jCcha8xXOLPiDT3dNRi7Px638zd14WjWnYWKUZrPryMxat3MCO/YcprDDwDggjOq4H/YddwehhiTQxJ7Qe1TtI217J+AgfDMDRNZkETzjjKbpmKIkJ0XUNYVZ+GuknGu5dvojnpi467seOTtfyh1dvOeW50Jw8O47mwWfu55Joj6PXBquEbbOe4am31nDklCHdYuc7tzLhneO2ypAHP+KJkX60pqxnBA7gtid+xuAIs/46WZnNurnv8+H8b9mUWdKgt9wjsAu9LhrDtKvG07/9KUI6BiHD7ubnY7vgVb9xMle8z+tvzmbV/pK6RlKPkEQuuepObpvUixCHAZgEdL+Bh368nvveTOdUh6dhQPmWd/jVE++ytdQGM4Kh9/6Rxy6PxjTA8AgjPNAi65vf8PCfFnHYCfjE86MZL3FjTz8MTPx79yfJ4zvWtIbhICIiInJOKahjEN7+J1ztU9KkHjjDt2cTe7nBDBjP5K4dqbv/t/PZuO4XvLbnwDFzKp2UFi1l7rLtZA/4AzfFtMMEDKMdQ7pPYVH2O2Q0snO+kZeQ4lkXUziy/4+8um4JRSd8dAVFRetYvnUdy7e9TdfoGAqb+H6kOYRzyaTLCHZYFG3+kBdeeJvVOceEysI8Dh/cwcYlc/gw5lKm9y5ovUP8T6iUrWm7cA7tjgdg+CeTFGOyfOcZvkvPRJLjao9/m8rtm9l5dtXAzinvzuN5+Nl764OpVcjmfz/NM+9vpKmjrC8cfvS74eeM6eBRF9KtwvW8M2MG/9ly4gbK6qK9rP38NdZ+NYtB1z3EmMYmqHumMO36EfUjNmyLrIW/4ZcvLyH3mOdVF2znm3/+ip3ZM3jh9gEEmYDhSecJNzN6/sN8mn2K49MqYsXMj46GdAArhx8+/pzdI288Os0DwLmVue9/dzSkA5TvZP7cVVzT41L8DDAD44lv52DNgVZUV0BERETOCQV1HASHX8Fl4c2/3c5dx9C1bhynRWn2m3yw99iQ7sI+xKr1r9M78lEGepuAgSPoSi6O+JAPDp+s3JtJRGBH6utjlbHtwMqThPRjXy+fPZn5TX1D0hzMAEKCbSr3fMRzM95kY0njyax8/3e8t/887dt5Y3EoPY3Dzu60dwBGe5ITQzB25p3RcHWzYzcS/GuTmJPdaemUNuPeNiefuKk8OuMOUsOOhnTbWcD6t5/guY+3UNrmQjo4Oozjx6Oi6oa721YmC1585qQhvYHqQ/zw1iOs9zZO2pDl03c8ozrW99Q7877itdeXHhfS61Wyb96f+L/Br3NPv6MjEwyf3oy5PJZ57+1svMHMOsD23Q373Z1Zu9lbbhPvf3QPnAVb2X6o4VbK9u8l24ZYAzAiaBdhwIFG37mIiIi0AZqjfq4YsfSJ7lj/Adv5rNn5LfmnuPu0K5excO/B+htCI4xe7ZM5+ahcAw8Pl8HRtkW1fWH1v15wnNkseO3/ThnSL2TO3ZvYVl7z/g0HccnxHD+I2SAgpjepqQNITR1A/8TIEz4mKDGR9nVJ7DDp6YfccASCgV/S1Tz53J2khjlqQnoOK//xCM/MbJshHUy6jBxNind9Y2bxsjd5Z03haTTYWFRUnCx1e9F9yACXwm0WB76czariU2zdymbhJ0tcpiCYdB48mJhTTRNy5pCTf8yR5ywg33UuQ+5h8o593pFcCmrfghFIaIjaz0VEREQ96ueM4dOdOP/6dhCrai0bcptSzbeafdmrOZIYQ6gB4CA4tBsRxkayT3J/WVxeiE37mhf2IyGyG55ZG1pF1etTs9j9/p1MeL+l96P5OHd/xrzNbbyyc+VWNu+s5tLenhiYBCak0NGxkt0NqiqGcsntv+Z/U48WW3PmfMLjt/6F9Q0ObA/ikxPqlsKyy7eQttvdhg0bBHT/CU8+eT09A49eE2znIZa9+igvLNh70qURL3iODqT271zfmGnls3TBMgqaq9HC7ES3ZJcins5DrFq1q0lLuZVvXM76sisYXtMTbnbqSUqAwb5GluGwK4opOW7KRTElLsM7rOJiSo7J8nZpKWUuRef8/P0xOLa2iIiIiHHjNX8AACAASURBVLQ1CupUs2vTrfx+e2aTbowc4Xfz7CWTCTtFtSYzoDNRrgWGi7axv4ndfNaRbWRYNqE140HNwC5EmZB9wjtMJ7l5m8m3k4moCfYR8b/kjqpXmblrBZmV7te32LZZHFi9kv3uliXPNyuP9LRM7N6djw4v7phCgr/B7kKXs9CvN31TvOqGLTvC+tE/1mT9Npdj2tGRxMTa5bBsqnduZptbJV+D4N43cf9j15BS23Bnl7L+nw/z2wX7ceOp9OeedwJJXVwWXazYzLr0ZmzA8oqhc/v6i7BdvZPte5t44lXsYHuGk+EpR/9EGo5OdO5gwpGTP9+urKTq2D8idjVV1fU/tKsqqTz2Mc4qqm0bjp4JeHgena+voC4iItK2aej7OeLpG4F/3T2iTWXJIQqbeOdlVx8izyVgG45wQhpZx8uZN5evc0vrl/kxIunZ7WmeHPsBT138K65OmcCAdsm08/ZuVdWgL0h2JXt3Z7jh0OzzzWJ/ejpFNR+E4RlPSlzDscXeKf3p5etyxJod6NevU4NpIIZfAskd6wvJZaZtJs+NPlyz64946slr60M6gOFDwuABRJ/HKvPuyBHekSiX65qduYeMM638fwJmSAThHvXbt/KzONzU7Vt5ZB92WcrSDCYi/BTt2k7rBOe1RbVrtreqTtCj78RZ90MDDw8PXadFREREQf3cMPHz8Hf5cC3Kq5pWVf6oYkqqXG7VDH/8PBv5quwDfLvqRZYUNhwuaZghtI8cwchuP+PWi/7MM+Nm88cxf+Pnqbdwabv2F96yX62BVUBe3oUxKeFsVW7fxPbaLkgzhIQklxUScBDfvx+BJthWLjn5TsCkS79+DdZcd8R1I6E27FlFbE13r0YQR0QnOvgcG7tMAvrcwgM/Smjb52BQMIEu/3UeyaOgOb88vwD8XC+bpYUUN/nJTkoKi+uvp4YH/n4+jQdo+8RB3Xa9KFsn3kKDJdwN/VkWERERBfVzxjQbdpdV26czyLWaatc7NzzqqiKfjFW2lPe//V9e3/ItGRXVJ2kUMPHxjaNb56v58UX/4KmLriPZW4fAeWVUUHHc2Ne2yS5OJ61uPohJp+RE6jrQHV3o17sdDsC57RPeXXoYJwYeif3pHVD3IKISkgipHVFetY3NO9xq3HsNG2fBGt57fS77ahsmDB+Sr32Y63r4tuyutSDDwwMP1+tadWXz1tXw8GhYhLPKeRqNODZOp7PBddTheao120VERESaj1LaOWJZDQc4ehinUw7AAw+zwR0sziZkO7s6g7Xpv+b5z65lxuJf8++0WSzP3ERmRcUJblA9CWt3HfcMu4F4VSo4j4yGPWxtmfMA6Vtq14g38ExIJrbmimRG9KVPZwOw2Ld6OYt/WEuhBYZXD1J71PZD+5CQ0rXuImbt38QWt1uI3MbKWcbfH3uK9+a8xkv/3UFFbVb37MLU++9kYGDbHOhsV1dT3aA90usEVf3PQrWz4TBzT8dp/MEzcDgcDXrQnVUaCSMiIiLnj4L6OWFRWl3iEo5NfDz9T2PeYQD+ni53sHYJZVWnMSbULiIr51sWbf07by1/kBnzp/PLrx7hrbQv2VVe5dJLZOAVchXXxHfVgdBGGKbjlKMzzp9qdqZtqSuu5QhNJqmdCRgE9U4l0WGAM5O1a/ZSlraSDaU2mAH06t/9aKBzxJIc51lzXlkUbEnjoJsV6XPmLOHlR59j3p5yoJxtH77Au2llNeeggdn+Su69ezjhbfEELDzSYCi6IzisbnREsygtotT1sukXRECTn+zAPyig/pptV1NSqkrsIiIicv60xdvD86KqLNdlbWQDL/8ogpoYkAyPdoR7uVRDduaRf1w54dPaG4qL1rJ864v8/qt7+eBgtksjgicxnUYQ4zbhTZrGPqZn3oGjCcXJjIAg3KkDt3TrZvbUhmuzK8mJPoAPPfp3x8sAZ/4aVu10Qvl6Vm2qwMYkpO8A4h1gRiaRGFHzpu1KtqbtcLsq6taeH1hx0KUntnoPs/70T9bWVtHDQfjF93LflR3a3MXYmXuALJfrmtG+K52acdK+VZBLnkuXvRkaTWRTt2+GERXpUtTNOkJunrsdXSIiInIha2v3hueNVby3wbrnRmAiMU38tM3gJGJchr5bxXs51ExFluyqXXy35lVWlLtUlffrSvRpD38/puHAjcJfm2BXUuk6193wxdf31F+Co0MM0W501luH0kjLqUnqhhcJSbE4vLqT2tMPA4uSDSvZWgXYxaxbnUaVDY6o/vTtaOIV342utY0Tzt2kbS092cu4FevgXF7+x/L6wmlmIP1v/gXTuraxOdAVO9m21+U65N2Dft19mm/7lRnsy3JpCPCIJ7FrE0vteyeQ2Kn+sbZzP/sOulOZQhEREbnQaXbyOWKXp7OrxCIp8GgqMj370SvChw3Zp1on2IPOUakE12UuJ4V56RxuzjGX1TvZW2Qx1OfovhmGF97m6a7cW0mVyzBjw8Ofc1MWyyAgbiiD41yGoWJjZa9n0cZDblXh+7yySzlypBKbmqHfZgdiok3Ib2zst4P4Pn0IPOug7kNM6iWkhLo2DNjkpX/HmgOnub6Wcydp28qYGh2AgYOIpCSi4iPpHWyCXcrGlRs5ukWL/LWr2OXsT4qjM/36RrMuIqGu+JwzZzNbmqs165yzOLzwZf7aP4mHR0TgAAy/HvzkwevY9Is32dKMS4k3r2Y+F50HWLNmHz9Njj3aYmyGMuzKi3h79dcUNMf1zso4WgOha9jR7TvaMSA1jjfTtp9gibSGfHoNoY9Lw5d71j8QERGRC5mC+rli72J9ZiajAzsevUk0QkmNG878QwvIb+R+z/AaysguLsNg7QI2ZW095Y3l6Ykkws/lVttZRHH1ad6E2gUcqbCpTeeGTxwdvQx2VTT3zaxB5JAbuP8n8S7DP2zKv3uGxW05qGORdTALi/ijla0d7ejTpxOO9D0nPVaMwEGMH9Ges16+2/Sn7/QHuLuP6+WjirWvrGbtgYrTnMdbybbNO6m+pA+eBji6dufSwTFEOcCu2MyqDfXLGlqHVrFq3y2kxHmQlHoZqd7RNceETdm2zexys/npjbLzWPr3l/gy+TmubG9iYOAdew0P3rSB+/++mmK3zITNfS5a7Fn4BVum3U53bwMwCRjyU25I/YG/rCpq4nFk4uEJ1Ses4VHJ5hWrKBw9umbuu0nHK6YwYNaLrGjsAzajGDnpYoLr3qTF/h+Wk9Gaji8RERFp9dxoEOyFxsnefZ+xt65cu4lf1E38T+cOJw9KRiSpvW8jtW7JNBtn0RcsPtxYL6WDxMR7GRcTT0CThp87CIv5EYP8avfCxlmYxr7Tvcu2s9lfVFp3c244enFRbKxafs4bJwe3baGw7ntz0HXcjxkacpKDwIzi0jvv5rIwdzvlLfK2bCazthK6byqTx8RiYlO9/QfWFroEKude1qzNxMLAq9c0JiTWrstWze7NW3DHhdkaYxet4p8vf0xG3ZJtDjqMfYA7h4a1mZkkzoPzeX9hdt2qFobZntEPPsXVKYGn/gwcwfS86mkeGht10j9k5Wvn8nVm/cXNEXY5d9w2rJHifZ50HncfN/Txq3t9u2Ijn3+1uw03CoqIiEhLcLe79guKVTSPOXsz62/wjFB69XuRn/UYTkcv14/egV/gUMYP+QM3dnK56bRzWZn2MRmNdi2Z+AZdxsSBr/DrK//EbT2n0C88hsATlPZ2eMXRN+VJHug3rL6wnV1M2p4l5J12D14FO7LWUF73PC+6pDzPz/tMpl94VyJ8QgjwCnL5F4iPjrZmVbn5e1YWuISQ8BHc/+yDjO0RiXft92t4E548khtnvMQDw6OwC3IocLOeQStjM1tri6uZgQQHOjCw2LN6LbkN0pHFzlWryXWC4R1EcO0BZWeStiWvFQYpm9KNb/PHmTvrl2xztGPEPT/n8qizHvfQSpSy9u0/syCzuq4H3Qzqww2/+RvP3jKWXu39jmvYdPi1p9uI63nkz2/ymxsH0q6x1sGqLcx8ZzH5dS2KJtGjHuWFx37MoI5+Df4AOoITGHHzb/jtHakE1bWVOtk//20WZLa+o0tERERaN3WAnlOlbE37A1+EPc+VIT4YgGGEk5L0KI8nllBQfICCKhsvnw5E+wUec0NaSeaul/hvZmGTh4B6+XYjNbEbqYlgW8UUlGRTUFlEueWBr097ogPC8DFcA7xFUfabfJSRewbLDtmUHvwv3xQOZVywV817CyMx7m4S4070+ErWr7qav2WUnfYryUmUr2bOvB0Mvy6pJpgb+MZdyc9+dwV3luaRV+TEOzCMID9PTANsK5uF/5pD4M9uZ5A75cDKbaTtqObyVC+XKtv7WbMm47hh/FVbV7K+aCKXu6zjZRWlk57RWJDyIPXefzPjyuAmtEwaBF7+HHMuP8mvqzfwt1t+wac5zRXcytn679/zfu8/cWN3XwzADBnCbfdNZusTH7PvmELjZvQ0fvfaXfRoypXb0Z1b/vk5t5zwlxZ583/Fja+uafFK+XbRSl5/5hXCnruXwRHm0WuJVxT9pz1A/6n3UZZ3kIM5RVTaDnyDI4mOCsGnrtjmqfbepmDJK7zcN57HrozB8+jGaT/kJp4efB1F2RkcLCjH4d+ODh3D8TMb1l0o3fouf3x3I25bNkBEREQuWOrjPMfsqk3M+f5pPsstaNDjZxj+hAYmERuWTMdjQrptF7Fn5/P8ZeNqSs7wdQ0zgNDAeGLD+9ItsiddA8OPCemV5GS+xiur5nPoTOfDWtuZv+JFlh4pbYW9mRcCJ7tnvcQ7Gwsbfv6Giad/BFHRUYT414R0ZwHr3prBX1fku993ZRexJS2jwX45D69h9Z4T7GnFJlZtLHNpWLKp3rGZba1t3Lurql3M/NO/WFdcVwaegF438sDVSTTjamVurTJjHr/+5dN8vCmvbhg8AIaJb3gM8cnd6JaSRNf2oS4hHWxnGQVHqo7foCu7gB/++it+N28HJQ0uwp4ERseRnNKdhE4RDUO6bZG//h1mzHjfjYv7iYiIyIVMQf08sCvW8sniu/jDujmkFZecNCjZdjk5OfP5aOld/H7D8iYOR69i86YH+Mvat/g2czOHKqsa7R237XLy877h0x/+l+eXz2bvWa3PDs6Sb3l30S28sPINvjmwlr3FOZRUV2OdQR+9nIGKncya8SB/nLeZ3BN9l7ZF8Z7veGfGPTw1czvuOZ7ByYH0tPrlyrAoWv8D20/YWVrKhtWbqK9ZaJGRlk5rL8htHfiUl/+xov4zMHxJvPphbujl32bmq1dnL+ONX93Cvb97i683ZVLqPNmXauMsy2Ljwnd48f4bef7rnFM3Pjmz+P5v93LPk6+zYFM25dZJtm1bFGesZM4r93P3E++wsdDtmrVERESkjTCSU+Ja+S1ua+NJYGAysSGdifQJxtsBzupCjpRkkJG/lYPlp1s1+1jeBAZ0oUNgRyJ9Q/Hz8MbTtKmsOkJBSQb787eTVXG2ryHuyCO4Cz1696Bru1B8PasoK8hm37ZNbN6dS6W+cGllPAM7Ep+UQEx0JKEBXjisSkoKc8nau4Ntu/Zz5IwPahPv8FhSkmKJiQon0MeBXVXGkdxMMnamsS2jkFP00YuIiIiccwrqIiIiIiIiIm5EQ99FRERERERE3IiCuoiIiIiIiIgbUVAXERERERERcSMK6iIiIiIiIiJuREFdRERERERExI0oqIuIiIiIiIi4EQV1ERERERERETeioC4iIiIiIiLiRhTURURERERERNyIgrqIiIiIiIiIG1FQFxEREREREXEjCuoiIiIiIiIibkRBXURERERERMSNKKiLiIiIiIiIuBGPlt4BERGRZmcEMfrpf3PfAM/GH1e1lldueZj5ufb52S8RERGRJlBQFxERaXUMvEI6k5gUR6eoSIL8PTCd1ZQW5XHowE62b99LbrnV0jvZ9pi+tEvoQbfYGCKC/fFwlnIk9yB7tm5mW2Yx+kZERKSp2mBQd9A++c883j0BBwA2lfuf5YGVS6k+5XNNwhN+zzO9etY8F6oyf8/Dy7+i9BzusZx7PgN/wb+eHE2Iy2QQu+x7Xrzpab4pUk+biDQzRyemv/B3bk7xwgDsivW8dvcv+STrVFHOm+gBk7jmqkkM7xGFj2mc4DE2VkUe25bN4+MPZ7J0XylucxXzGcHjHzzGMK8zeXI1W964mYc+znS/wGuG0XP8T7n+qlH0DPfGOPZrsavI27qIWe/8iznrcppwvyEiIm1dGwzqIsfyImVgKkHHVGwwfHoxqI8v3yxRM8z5FcCoJz/kwcE1d/JVK/nzjY/xeYHbRA1pDexCvpwxka+Oi6h+jHjsQx4ackZJsdl495zMhMSjIR0sCpbOZGH2KeKndxdG/e+T3HNZZ3xOlM/rGJje4aSMuIFfXXQFK958jhc/2UapTqFzwgjoxo9+9TQ39AnjhO0mAIYnYSlXcPOzQxjyn2d47r11HHG71gYREXEnKiYn4khiUGrI8SeD4U+fgb3xaYl9EpGzZltOLMs65l91y/fGGhFcOuVy2tUMzbKde/l89g8UNxakHdGMfOC33H9sSLedlOftZ9f2LWzbtY+cUqtB04Th2Z4ht/6WJybH0rJNExcozy5M/NXz3NC3YUi3nRUU5Rwip7AMp8sXYpiB9Lj6aZ68Ognv87+3IiLSiqhHXdo8M34wqXV3zBYVlU68vD0xMAnqN5huXstZW9my+ygiFw4zdhyTU/1qetNtytbOYv5uZ2PPIHLkPdwxLKI+DNrVHF7zH/7x1kcs21VE3bMdfnTsN4Ebbr+eizv6HH0NM5DeN9zH5DX38999Ld5M0YDz8Bq+WLyTsiY92iZ7e7H7DOPHg7jpD3FTn8C6hl7beYS0T//Oa/9dxI6CasAkMPZipt5yNz/qG47DAEx/Uq79JT9Z/7/8K728BfdfRETcmYK6tHEmXQYMpGPtXZZzK/PmljNhWj+8DDBDUhmY6MHazZpRKCLNwZ+BU8bR1VGTuJ2H+GbWInIby89mLGOmDiKwbtiPxZFVf+GRZ+aTeezznKUcWPUffrfzIJUvPc6omkZIwzuZiRP78smra6ho5nd0NuyDS3n/zU8af/9uygwfyQ1Tk/CuazwpYfP/PcITH+1w+YwtinZ/x/89vYucJ/7E3QOCMQHDszMTbhzLZ4/OIrOxNhoREWmzNPRd2jZHBwYM6Fp3IlgH1vLtl6vYVXvT6IhiwMB4nSgi0izM6CuYelFYzTXFpmrHp3y6sfH+ZEfHgaTGuFyFrN3Mffvz40O6Cyv/e979eBOVdd3PDkL7pRLrOPlz5HQ46HTFNFL96/rSqdj6Aa98vOPEDSHV+/n81TdZW1cowMCn+2TGJZ5i+UAREWmzlD+kTTMjBjIwrq47ndwNa9h9YC3rD9TeAZt0SB1EF50pInLWPEkeP5metZPMrWJWzP6MjFP0qJodutDB5RrkPLSOtaccwm6Rs34NGS4PM8M70UFFN5qHGcvw4bHUDozAKmblnPkNPu9jWYcWMvu7vPoaCWY0l4zohqK6iIiciIa+n3cO/AIS6BLcmXY+wfh6eoKzkorqI+SXHCC7cDdZ5eXNMAfPh+CgJLoExxDhG4SPCVVVBeQX72ZP3nZyqs7lOEMHfgEpJITG0s4nEA8qKCs/yP78zewpdplL2eIMQvsPJtGj9qa5hA1rt1FtVbN2Yx5XdY7AAZhdBjGg/fvsPnDme+7wjyaxZy/iO4QT6G1TUZjDgZ2b2LA9m+Zd6tiBb2RXkhNj6dgujAAfT+zKYvIPZbBrSzq7c8qar5CW4U14bE96JHYiMsQfj+pi8rP2kLZhI/uLWuE41guBw4fwTskkdu1IZFggfl4m1WXFFBzex+5t29mTU9ryhdTOkOETQVy3niTGtCPIz6S69Ag5+7eRlr6LnHL3mbXcGCP4YqZe0aF+BE/m58xaVnjK673D2wcv10JlBbnkN+EtWwV55FtQu56oYXji7WmAG83ybq0cMYMY0LG+9cQuW8OS1UWn+GTL2LR0OQWjxxNmAjgITx1CvGMDW9znD6OIiLgJBfXzxQghrsu1jE24nO6BgZx89GE1JcVbSD/4LSv2fc2mopLTuqUyPDvTJ/4aruh6MbG+PiccMmE789h78FPmp3/MhpLTL2Tj2fEJXhp0cU0vQDXbN97MSzuysXEQEjmZyT1+xIDQsBP0ElRRVLCUr9PfZGFWFi1en80Iou+gHnU3wHblZtamlQM229asp3TsqKNzQs14Bg6IZOaBrNMOOYZ/PKOuu4OfjO5DOx+TBiv32BZlB5bz8T/+yoerDhM++UX+cXuvoyelXcF3v5nKb5dWNe2FHIHED/8R10y5kkFxYQ1u6utfrozDad8w+713mLuhCev4mu2Y9Ju3ubNnzWWi8lt+ffVzLKnyInrItdx641QGxwTU9yjVvk7lYTbOe51X3lnE/sYmwzq6cM1Lr/HThFOMxfUcyL3vfcG9J32AxZEFj3P9n1ee9trEZkgig3p1rJ9jCtgV+1n/ww6OtKIs4xnRhyumTmfsiFTiQrw44QpRdhUFu1fx7YLZzPpyDYdO+t2YxF//Oi9f2+Xo9cPKZe5j1/HXDaf4dM1opv3uTW7tfuzx0oQ3YCZw/Suv8j81Q1esgnk8+dM/saYaDL+uXHrtbVw3JpUO/o5j3puNsyyLDV98wNv/XsC2QnduhnDQafQ0BgfUXJXtMjZ9+ilbm/D5OMvKqLSpO68NTy88G12erf5xDQJ+dTFHylrRge22DAJSetKp7g+sTfWO9WxuQkW8iq3r2VI5jmE1oyoc7XrQPdJkS5Y7H7siItISFNTPA8OzO1cOfoJJkWFNmGvggX9ATwYk9aC3Xy4PrFzaxPBhEhh+NT8dcB09/DxPfKNeuz+OMLp2+il3tR/O92uf5v39mc3Qy+1PbNIT3NW9L0HGyV7dk8CQEUzqncf27NfY2cL3i4ZfXwb38K6rvFy9bTUbS47uVEXaatIqRzLYxwDDg8SBqYR+Mo/c09hnj/aj+PnT9zMyxvvE34dh4hszjB8/lUTcK4/wrzN8H46IwdzwyweZ3j305Gv4AobpS7ue47jt+Yu5dNZvef7tleSe7hdvBtLjJ8/y5LU9XApbHfM6XpH0nvIIL3QK4pFnP2GfG9fhMzuP4Z5fTiLcdVjx4Tk8uuoVNraGHi4jgITx9/LQTSPo3PjC2mB4EhI3lMl3DWHMhP/w6D3/JN3N36MZNZyfPf0gozv7nuSaZuDwbU+/yT/D2vM9T35xxH37in36Mml8Yl3AtvIXM2thZpMa/5z7trPHeTk9a0b/mNGxdPaGfaWNP8/RKa6+UCY21bvS2dXEtj9pjEnnuC541B2UFrm7dlHQlC+zfBc7DloMi6tpoHR0IraLJ2S5U4k/ERFxBwrq55oRxdDUp5kUGdwgpNtWMQUlB8itKKUaH/y8Qgn3b4efw2w0ZJ+YSXD0Pdw3aDztG3Rv2ljVeeSU5lFqOfDziSbCx69uPwyPrgwb8Fsc1gO8fTD3LG5wTSK6/pK7u/cj8PR3vsV49xpCH9+6CYbsXb+WvJobLbt4A2t3OBnU0wMDA69ug+kbNJ+vm9jNagQO5PanHmRkTMNGE7uykMNZhzlS7UloVAfC/T0wzAiG3PEIhUtOP9E62l/OL55/iEuiGvY02s5icg5mk19q4R0UQVS7EHxqjg3DDCJl2pM8Yz7Bw2+sa3zt5gZMIoffz521Id22qCo9QkFRJR5B4YT4elDXRmM4CEm9lXsnrePhj/e50XSHC4gRTL9bfsvjUxLwbThUA6uyiJzsw+SXVGB6BxEW1Z4wv9pjxMAzJIQANz9XDb/e3PTkLxjd+SQNXa2KSfil0xkRUbdwOns/n8XKkqY92zq8nMXpN9Oj19Hl1gy/AVx5aSTff3745EHfCGbomIsIrat1Vsq6r77lkNt13Jr4RiYzqGc3OkWGEOznibO8kLxD+9mzbTNb9xW0/OirYxkBdOgQ6jIyziKzqSOunNkczKzCjqs5Hw1fOsaEY6442GqnpYiIyLmhoH6OeUVey8ToYJc1VvexavPf+GTfeg5XHRNfzEAiQ/vTL+ZyhnYaQHgTX8MjeBq3DhjnEtKdFOUvYH76x6w4lEGpS9Vfv8BUhiXfxISYOHwMMIxoBvW7j235T/F92ZndJpg+l/GjLoMINMC2C8k4+DnfH1jFroID5FdVYXoEERKQQGLUpQzrPIToM3qV5uZNj8H9qSvY68xi/boD9YHSymH92j1YPRNwAIZ3bwb19ufrxcWn3rQRxMCb72Nsp/qQbldkseLDV/jX3FXsL6l5FY9QEi79CXffPoHkwHiuGGGfXiDx7cWNj93vEtJtqnM2MPf9d5jz3Sayy+qPL8/geAaN+yk3/2gI7b0NMHyInfRL7th0Jy8tP/UcWQAcvbnqxgBCjUoOrf4vb74zl+U7cqiwAdOHdj2u5Pq7b2Fkbe+n4Uvy5Kn0nvcya0/UWeTcy4c/H8OHx/0igFFPfsiDg72O/rdqJX++8TE+L3DbvtIW4KDzxMd4ZLJLSLctincv5L8fzOSrVTvJr3T5vExfIhMGctnEa5g6PJHAFtnn0+FF0tX3MrmLNwY2FVnr+GbBVyzbsIV92QWU2l4EhETTJaUvQy4by/AeoS29w41zxDF+Smrdd2WXrmT25zubHsysTL5851PGP38VnT0NMPzpd/NjXJ85g3fX5x/fEGYGknLVo9x5UUjN3x6L4k3v8sbCXLcLg45ed/H3N8wTjwaynZRmrePr2e/zn883kOsuo3OMCCLDXabs2OXk5TbxOkoVeTkFWETXBH2D8MhIDA6eiz0VEZFWTEH9nPIkvsMQgutuQErZsvFx/rU7+8R/0K0iDud+yxe53/JlWiy9QqpOfVNldGZk3+tJ8KxNnJVk7n2BV9ctJue4JzspLfqBr1ZtYkfxghNcZwAAIABJREFUs/w8pSe+BpheqUxM7seadas5/RnrJlGdp+LnZWCV/cDslb/nq9zChvtdeYQjpRnsPfQNX2+JZ0hc7Bm8TjPzTGZQv/oGFKtwHWt3ud7uOtm/fh2HfpxAewdg+NJnUC98Fi875b6bXSdx/cjIut4W25nJwpfu549LjrlJrs5nx8JXePRgMb97/sck+pxOaXlvuv3Pz5nS1asupJdu/Yjnn32DtfnH919XHdnJ0g+eZtOWO/n1E1OI9TbAEcGIG6YxZ9Vb7GjKDbAjmNAgJ5kLf8vDLy8mx/VlrHIObZzDHx8vwffPv2BYyNH34ggbwtCUV1m73l3usC8Mjg6TuOeGvvXTD+xKMr56gade/ZasEw1ttso4vO07/vOHxcybPZ577vr/9u47vsry/v/4675PTvbeIYQRSJhhhyCKCjJVUHC231Zba/utq63+aof6bdVqtUPbuqqto7WtdSPiBFGGMmSEJRsCYWTvnZNz7t8fWSeQcQIBDub9fDz8g/bknPs+835f1+f6XAO8t0QcMAImMnd2CD7UsP/9x3nkheUcO26wp6K0kJyD21n70Wv8Z/xVnO+1dRsGwelXMTupuVrKSf5nb7GyO+togNqvXuLhv/bh4dsnE20amEEjuPY3L3Je5kq+2LSLI8VVNNgCieiTwpjJU5k4IKQx/FpOyne+xm8ffssrl6EYZidVZIaNwITxzP3hWKZOX8wTjz7L57lecBJmCGHuo12uSsraNNA0CUm9hMsuSCWocjerPvq0Tf+E8vLKtrcNDcYGXvsOFhGRs0NB/XQyIogPCW0teXftZNOxfI8ukC1HFlsLunwAAuOvZ0aEf0tYqyt6mb+1G9LdVXNw91/4OP5projwxcBGeN/LSNuxifX13b18Nwn2C8VybOedNQ+xpKzzdXaWYz9rdu/v5mP0PNugSUyIbInS1GzLZNdx9ZXOAxvZWrGAhHATMAkeO4kRfmvY2Okp2hkxazYDfFqrGwqXPcVzX3Q8k1W76988+c5k/nTdwBMas3XEjJ7ONy/t13J7V/kannuk/ZDeykVZ5gs8/f4Efr8gCRMDW9Js5qT9lyfbnfI+kbPwI5559riQ7v4IRZ/y6kffYNL1/Rrf92YEQ4YkYttySBehPcafsVdfx4jWqXSqtr3AQ0+uILfLJ9miav97/P5ef/y8IO90xPALI9xykbfsUX717OrGzuUdclCw8VXeOVMH111mPJfMv4Cw5h5y9bt5b/G29vfa7pSDwx8/yJ151/HDH17HpL5B2GzB9JtwKf0mXHrizS2LuqKdrFz4D/69OJMCL369u2SYBKfM4+e/i8DvF79lWc5Z/jYxAgkKcvuyNqqpqW3dHz00/Uc8fu+l9GnqsH/FrPH87u4/8EWxC7Cora52uw4wsAUF42dAt39+RUTka027Q59Wvvi2qedrwOHqyV/icEYPmNy61tTKY/WOxeR4UttoHWbNwW00T74Z9lGMivI7yeNo4PC+p/mki5DuPUwGpGcQ15LT69m1eSsnNOyt20Xm9tat8szQCUxM7WJsyzaE89KjW9cuurJZunhDF+vAGzjw8QfsaPD0vWEj/qKZjG5uHmY5yXr3Hywr8OTitY7dSz6hpXjADGdcemonuxC4c3Fk2WIyO21g5SJrcybFLYdiEJ8Y9zVYY+w9jOAMZlwQ6bac5iCLn3+3y72426irPYmgeGa5ylbx0otrugjp3s932JXMG9Y8mOqiYu1Clpz0Vo8uijb/l4d/fBuPvr2ZQkdH3xkWzrJdLF/0Fos/2+aFId1JVc5Wlr/1HI89cCe33nQN1141h7nz5rDgm9/mtl8+xN8XreVwtattoI2ewu0/+waDfM/ioQOY9ra/7VYDDkfTv81oLlowk4SWtvwGPvFTuW5m36bvWQuHo6HtgL3drr3URUTkBJpRP52sciocTiyam8akMiImhHXHutpr1UP2UaRF+beEIFf1F2wo8rSo3KKi+CvyrfH0NQCC6BvZDzNnT7fXMFrOzaw6mHXuzJjakkhPT2wdpXIeIHNre92iq9ieuRPH+eMbtziyRTEhPQXbtp0dnqstfjjDYlpjrzNvPRsOdf2Muoo2semQi7SutioDMCMZn57SOvvu2seqz7M9ft2cx75iZ4mTwdE2wEbU4BSizW3kdXUHziK2bj7Y5eNYeUfJtSC68WDxDw3DH/Bgdf8Z17D1Sb4998mzfRjd4jtiEmPcZtOduz9mSZbXJbFT5CR/xTusOZf2yGuPEc7582e0Dgq6jrJ00RdUnOxpmSEMmXkTN31jBiOjO2uyZ2ALH8asm/6Pmd88xro3/sLTr2+iyBsGPRz7WPTQD3g8M5vqdo7HWZZL1tZcsrauYPHbE/jWz+7h6hEhTd/XBn4p1/H9WZ9wz+Lub5fZY0yf42Y5nDibD8YIIjj4xHL+4JDWWnnL1fYXxDB9Gr/Pz/G3u4iI9CzNqJ9WVWQVugUbI4LxY+5nQVJKh1tbdYctdCj9fFov2B2luznSjR96qzafkpbbG0QGxpzUyI2rdD076s6dKwwzdiIT+7e+AK6jmWxpN6ValG3bxIGW/8tGXPokBnTy2pmJA9tuh5S1j2xPRjCcuWQdqvLswtOewpCBPq0DNKW72d2tUtBC8ota/2XE9iHWkylv6xhHcrp+na2aKtps1ezr1+6+7nIyTPqmDm5tgojV2EvBGwJYT3KVkblhN+f6TmK2pMuYnx7c9ENrUbvtHRbvOcmzsvdjxt3P8PvbLyct2g8DFzWH1/D6k/fy4+9dw9VXzuaKq6/iph/9kr+89gXZTSnY8O/DpG89zB/unk68N/ziO4+wbWP7If14DYUb+OcD97Mwq741wxr+jLx8LimelQGdHq6G476rbdhaGpMeY8uWXNyL5yxnAZs27G8Z4DXMtgdvuRpwnjs/oSIicoZoRv20cpKb/RZbBv+ccX6Nv+Km30hmTHiSaaOPciA/kz1FOzlYupfssqOUNXRvTtovsI9bozoDv8R7+Mv8e07yWA1s9hD8oJtb4bioKD9ITzfkNiPTmHZBigdbSDkp2raUzw9UezgZYRI1YRKD3DrkF23dREeT3s6cTLYcdTG0X9Prl5jOhMSX2d9unbFBSFQkfm5765YWFHhYYtxAUUEJENr1GUT2IcFtz2wzah6PLJrn0aO0e39BwY3Br6u3n6uC8squr64tl6vNRadhmI3btulCtAf4EBvvtpTAqif74NdwWydXNlmHzpkanQ4EMOaKyxnYPJjqKmLlwk9OblDFCGHszQ9wx5T4xr27LRcFa5/gV398n0PuRVSOcnL3byB3/waWfzaHux74MRfE2TAMH+Kn/IifZR3gZ68f4Fyqv7CqtvKf5z/mggfntlQmmH0ymDTwBXbvO0vvfJeDepcFzZ9Ewwe7vfkLrp4d/36Ip0J/wrcuGERg5V4+f+UvvLC5+YUysNt92s64Oxzn/KCUiIj0PAX108yqXcEr65OJyLiGAfbmcjgDm70vKYl9SUmc23g7q5aKyj3szV/NuqylbKuo7CLXmAT6hfZoSYRxQjmfJyzKa4p7PIMZcZP5xs1XN3Zc71QD2/+2ji88DepGOOPTU2kpRHBVsTVzT8cXrq6DZG4r5up+TevOzYFMnBDLG4dz2glHJgGBAW7PoUF1lacDCFBdXY0LD8pcQsJ7pCKjmeHj4+EXgRPnuZ6dznVGIOGhbhf5rnLKyrxul+lTZjmKKao4t4cfzOhpzL84qmVdsvPg+yza2GmDhw75DL6aH8xJbPnecua9z5//9EHbkH6cusMf8qfHBzDwkfn0NQ0wAki96kYuXHI/n55jWx3Wbl3CypzLuKZv0xef2YchqZEY+wrPzvifVU1VlQUtfUICCXAbPKV2Hx89fjsfPd7eHxv4Bwa6BXULZ3UV51BRmoiInCG9M6hbPXkB6OpiNsuisuBFHvt0C1OHfotpfYcR0U5rb8PwJzRkFONDRjEu+Xqy9v+FF7avpuMdfAx8zJ5++YyTmPm0qG+oP2cmS43gcaQPd1/bWYLZdxqzwzs+A197KZYV3Th5YtgYlJ5O5KJ32+2sb9rcRxYsXE6Xx43ULA9TsGH3wedcecKlZxk++Njd31EO6r+GU3FWfS3153RO92HwZQsY01xeY1Wx/p0POHhS5+RL2sxZJLlVAe3/aCFbq7r+Eqjd8TaLv7qcH6Y1buNoBo1jakYEn33c84Orp5Uri937arD6BjV9n5rExcdiUnh2eqO4KiirAKKa/m0GExbiSVlSo9DQYPc7o6Ks4tzp8SIiImdMrwzqzp78SbQ8u7eG6o0s3bSRZdviGRg9jpTIIQyISGVARH/CfGxtwpxhhJM8+F5+7PMAf8j8kor2H5gGl/s8sJOs7T/gD3uPnPEyWMs4dy75AkdPIs195sPsz9SbfsJUj+/BwD50EuNCF7PkhFkpC0ed+6CFgd3X7uEFsYGvr69Hod5yNNDgdkPHhj/yrfs/PvkGVXLusBpoaNPp247v17FdtGWdW0HyOEbIeVw5sy9mywz4MhZ+fpLh2OzPqLQIt+aXeWzfdsyzXzFXAdu3HcFKS25qaOpL6vAU7B+v6+YSp7OtgeLiclwENVUoGAQEB3k8CNrjrEIKipy0NCwx/ImMCsHAk9fYTmRUmFvllEVRQcE5/X4XEZHToxcGdQuHs+0UlGF04+feavsPp9PRrR9YlyOX/TkfsD/ng6YHDyYmcjxj+87hwv5jiG6ZNfEhtv+tzMnewutF7a1ydlFdV44LWi9cfAO7cSTezbnzOb4377kevtcARmaMIfAUr+4M3xFMHBPC0uXlx732LsrLK3BfuhgW0XhB5sngSUh4SNc3Aqgoo8KtRt4ICCbIQEG9N7CqKatowMLe+BYzQwkL94UTNxc88wwfzHaqhXofGwnTr2Jy68bp7Hn/HXac7H549j70iXHfCqyQ/GJPP+wWRQVFOElu+rowCYiJI8TEOzrAd8MJP9PWWfzCsyo5dqwE5/jYpt9fk4TEeEyKux5AscXRJ8FtUNaq4eiRoq9fnwkRETll3tAD9gxzUeeocftRNMCweTgyb2CabUub6xw1pzYSblVSULSCJVt+wYOfPsoXFe7dbeMYnzSiw9GUuuocyt26tkcEJ3C2t5f1ar7DyRgdcupvesOftImjCWjn/6rLO0Zxy5vLJCghkQhPHtAIIj4h0qNjcxUfJddtQaMZ39c7ujnLGdBAXk6e23eEL/36J/b8F3mb5UEGPp502LZCCO26+6MXMI47PYMTN9M6BX4juOLyoS07HbjKv2Dh0qMnXcdl+AUQcNwASHdWb7mOX1Lj53cO/k7YiYgMa/M+r6qqPIvh1kX2gUM0tHwQTaKSBxHuydvIfyCDE93OxHmYrENfw/UrIiJyynrhjDrU1ZdSZ0HzUk/DFog/eNB11cLPp+3etZX17e2/fXLqK5fz300pDLrwauIbp8sIDh1AuLGJwnYexFW+m2ynRZSPARjYI8Yw0LaCnVrs1i6f1EmMDXfbli37v9x524vs9eBqz0y+kaf+8q2mSkeToNEZjPRbxZfHzZK5svdwwGER33RhbUtOY1jAIgqqungAeyojBts9iwuO/ezOcnLxyMamYmZEGqP6m2ze/3WZk7GOq1wxT5xN67VcHNmzjyrXgKaGggZ9x4wh7pV95PTYy29QX+9WKWQEEBBgg656hQck0jfqXHihGqivd9JS+GL44e/fU8dtEHH+VUxt3TidI0vfZu0plLtYjnoclluZjhlGVARQ6Mlfm4RHhLcJuFZdzbnXuMwcwNDB/m6z0A3kHs09i+XiFpW7tnPYlc5gG4CBz+BRDA9czKouvut9U8cyxG2/Smf+V+wo+Lp8d4uISE/qlUHdqsqhGGhu52IGxhPpUemwDxGBMW7/dlBc1bNryxrK9nDM1Rr0sPnR0RJUy7GF7UV1jIlrvIAx/SczOf5Fdh2t0Hq3E5gMmjiBmJaZQSdFWzd63NzJdWgDm/K/wYD4pkLH0AmkD/Xlyy1tV3pa1VvJ3O3gvNGNpY1G4Hguyghn1aelnb4m/mkXkB7m4byoq5DMDftxjRiCzQDMvlw8YySv7d/q4VZw3q6BOoerNUiZgQQFmlDS8yNQZsRwzh/X121LPbBqD7Nx9U5KvfTauf6rdWypuYQLghoH6Gyps5iR/A4v7+upTbdclJe6LasxfInvE4ONI53OCvuPGMtQ33MhqLsoKSrBRUDT+cWTEGfC0R54f5kDmDM/g6DmHnK1mbz7Xie7SniivojCMhctX15GH4YNjcbcm9/1jLIRRMqw/m5B3UV1Xq5bJZYnDIKTzyMjObhNp3JX3haWb/PgGHqAf9p0LnAvG3Jls2PXSfzO2eJIu2g0ce5fta4K9q9bS5YHzfncOY98yYZjNzI4qfHOjIBxnD8+lM9XHr8kyl0AIy+YSOt4sZPijevYr8F1ERFpR68smHVV7+OIW0thIziDMWFdd2Qy7GMYGxPY+qRZx8guq+rRUGwGxBJpul0O1ZdR2eEDlJB5aC0t1xdGGOOG38BQe/cvlg3D9vV+M5gDSR/fp/UcXdVsy9zj+d61zr1s2lzaelFqhjM+I5UTKoJdRaxZnklty2sSxMRrrmdkZwvjbf249NpLiPSkvLjxYDi64mO2tkyL2Yib+QOuTvH39A5amTbPyprPqAbKSspbn2sjkYH9Tk/HNDPpEn7wk7u5687W/35y8yUkeXHetCrXseSL4pbnx7D1Z+7N8+jXndfRx97JKK1FZe5RylrCg8mAsWPcwkU7zGguumwyno41nV0ujh48SEtPPjOUMeOHdDgg2h2B4xcwZ0DzUionRSve4rNTnS11HWDnPvclUT4Mm3kpAz04YFvcVGaNcZ+JrmP3jn3dLMM3iJl0A3fe2fZzcvul7Xz/dcU8id+ZgGFcf/Pslj3UwaLh4CpWHzmJdGsO4fI72p7HXT+5kYzok3jjurJYuTwLZ8v7KISMebPo28ldmdFTuXJKVOvz5sxl1Yod2kNdRETadU5cVvU453Y255W1XugaA7hk7HdI7Ww2yIhj3OjbyAhovTRxVa5hc3knF2FGMhekfYdJkVEeli6EMDzlMvq1bpJMQfEeOq6ks6g+9iqflNY1XcQZ2IIv56aM60n2cGbLtA9k7NBf8PMLb6C/F4eTU2VLTGdCkluf3frtbPqqk02IT1DPzk1bqW65WrYRO24iySd8giyKV77OJ7nNF5EGtqQr+dlPryC5vbBuRjPh5nv49gj/bq2SdeV/wqsfH21sXAcYfql8495fcOkAD8O6TwRDpt3Er574DfNivS2puzicld26/tMMJv3S6cR722GeNTVkvvEaX9W0jAYRNPJ73HvHRcR7EN78Eqdy+4PfZ3QnX0qurJ3sdbTev++oq7h2ZEddtn3pd+ld3DguuCdXep9GFlVb17Oz3m2ga8Z3mdv/FFdum3FMm38Rkc095Bqy+PDdjafe5s+qZOOKL2ndVt7AZ+BV/OS7EzodPDECUpj/oxsY6VbW76rcwPIve265VnfZJ/2YJx/4X+akxePJagNb1Fj+51cPctVAtyVnrgrWvf0R2Wd9FtpJ9tKFbKxuuZLAb8g3uX1+Mn7t3dzWh5m3fodxzeUWWNTuXMT7exTTRUSkfb2y9B1q+GrvIrITb2SArbF81Df8Km6/uD/Ld7/N2twd5NbVNpZ+2mNJjJ7MlJTrOT/KbYscq5ytu9/jSKdXPAHEJ1zL9MFXsaBsI5sOryAzbytZFUXUt/k7GwHBYzl/6Pe5PCmh5TEs5y5WH8nqvLTQymJZ5n8ZNeVGku0GYBIScyN3TRvDqj1vsPJIJjn17lc0Bna/JAZEjSWt71TS44cQbjOxKt/s1jN4bjGJGZfhFqotHLs3eLQPsbvabev5qu5iMpquMM0+6aT3+yd7DzqPvyGvPL+MjHtmEGtrbFYYlXErjz15Pp8uWcbGvccoqbMT0Xc45826nKmpkZhWBfv3lTMwxdPGYDVs/8+fWTT2t1zZzxcDAzPmfG577K+kv/tf3l7yOTtyqtvMnJn+0fQfksbYSVOZeuEEksPtGM4dfNWtZ+FMsCjPXMOu+vGM9mt8TwePvYXf/qoPr7/3OTsO5VJW2+AWNiys+moqas/6lfsZ4zz2Lk//azJ/vHkMwSZg+JI0/R6eGJTB66+8xbKNByhx/5Ix7IT3H8OUOddz9cw0ouqWsK6T+7cqN7F6Sw2TMgIbl3CYfbnsl7/F+benef3zPZQ6AEwC4kdy0ZXf44bLhhHmKqaoIoyoMO8fUXEVreT91d9m9NTGBo5mUBrf/d2fGPjO+6zbn0+Vw+1b16rm2O5d5HUxrmdPncfctICmQOmiasPbfHioJwrDLSrWvMLCvRncMKRpQM/wZ9C8B3g88U3+9d/FrNlTSG3TQxm+4QwYN5Nrvv0/XDjAvQKsjn3vvMLnZWdxYZQRQJ/xc7hj/AK+X7CLL9eu46s9+9h/KIfi8kqqahvwCYwgLmkII9IvYua0dPoGubf6c1G28QVeWOUd+8C7ipbx8tuXM/pbQxuXz5jBjLzxUR4Me5pn31hFVkXjApLgfhO54nu3c/341msIqyGb9/7xITm952tLRES6qZcGdXCWv8nLX43izrRxhDRe+eAblM7McenMxIXTWYfDsuHrY2+nI3ADhYf/wqtHijy8WPAlNOw8Lg47j4tHWrgcxRRUF1JRX02DGUBIQCLxgcG07T1fzcE9z7CioutfcUfZa/xtYyw/Tp9DQtPAg0/AGKaOHsPFo2qprM6huK4WyxZEsF8k4f5B+Bx3Tt5w0XPamBGNZepulQoHMzdT0s1raKtyM5v2NDBxVFPTN9tAJoxP4LWDx6/dtShb9xSP/rcvD35zeGOQwsAvfgxzbhjDnBPu2UX5xpd4cctUHvA4qINVtYWXfvNnoh66iylxja+o4d+XjGvvJuOa/0dtSQ45heXU4UdQaDjRMREndI/2Vq7CZbz+ydWkXZrQuBe14Uv8hGv40YRr2rs1ZR/fx7efWH9qa4HPKU6y332YR2Mf4d4rBhPQmKYJTp7BTfdN5zv1leTn5lJa1YDhF0hkbB+ig+wtTflcXTUzsEr4YuHHfCP9Svo0LcUxQ4dz5U+fYu4dlZSUVGEFhBMZ6ofNMMBykP3eC6wacif/E3ZaT7xnWOWsffnvrB1zN5MjTMDAFpLKJd9O5ZLjb+vcz8t33Marhzr5LjZCOO+K2bQ083bmsWzhSkp76ou14QBv/ek5hj1yO+kRtpY90eMnfJO7J3yDhqpiCooqcdiDiIiMJNjvuF8ty0nJxmd57M193vEZMUz8Y4dz4bzhXOjxH7mo3vsmjz72IbleE24bOPDWH/nHqD/x/aYdRQxbBGlX3cdT82spKyih1h5GTEQgbb56XdXs/u8f+M/O7lR1iYhIb9M7S98BcHBs/wP8OXMZOQ3HX02Z2GwB+Pv4nhDSLauCrP0P86fMz0/yIszAtEcRFzaEwTFjGRo1lMTAkDYh3bKK2b3rfp7ZvZf6Tu6plYvSnCd57IsXyKyqbRO6DcOfkKCB9I8cxoCwfkT7B58Q0sFFdU0hX9dLBiN0AulD3Dqqu46yeUvnjbHa5Spm86YDbhUOjQ3qotr7FFk17Hr1Hu752wqO1HbyRrGcFG16iQd+/wHH2hyQy6NtghuOLeUPP/s/Xttc2LrmFhovhCMTGZg6jKGpySTFR7YT0i0cpQWU1nvhMI1VReYL9/P058fOvQ7VZ4pVyqbn7+YXzy3ncJv3mIHpG0J8vxSGDhvGkOT+xATb3TrnWzSUddb7olHt9n/yl7f20/bta2DzCyE6Pp6YMP+mkN5A/hdP8NDLW6k5h14rV/4yHrv/OdYVOE55oNKWOJsrJzVv/WhRt2sR7+7s2daODYff45FfPsayQzXHVVkZ+ARFkdCvP/0Sogk5PqS7qjn4yWP88rfvcdgrUvpJsGrJXvE0v7j3ebacQgf908JxiHd/ex//2lLSshQJwDD9CY9LID6ybUi3XBXseON+Hnx999ek+aeIiJwuvXZGvVEtRw/9nkcKP+XCIddxceIIonza31PdsirIzfuET/e8zuqiYs9CnrWTD1b/kuw+55EWO5Yhkf0IsXW8Y6/lKuFw3id8uvt1vnRvpuURF5VFb/DcslUMG7CASwZczLDQsA6b/VjUU1mxg11569l89DO2Fhd9TRvaGASNnsRIt7bezuLNZGadTEmqk6OZGzl6wxD6Nc2S+6RkMC58ER8Vt3PxaFWxb/FD3L5mNNMuncWU9JEM6hNLkN1FfUUBh/dtZu2yxbz/xT4qnCYJNvePYwMNHr4gzsINvHzf91ieMZf582ZzfloiwWYH7zLLRV3xAbZv3sCXX3zGig0HKPea2anj1B3gw0d/wMa0i5h+0XmMHpJMYmwkoQF+2GzGObIe+jSzKtm7+GFuX7OYmQuuZs5FExgY3sE2f5aD0qwNrFr6Lgs/3tD1rKRVxbZ//px7im7htm9OIzn0hGFLGkr3sOL153jhvW2UWvFM7KnzOiMsava9zYO3beS8OVcyY/JYhvSPI9TPhtmt/QD9GTl3HiktG6eXsfqdJadl1rfu8FIe/8kWls26hqsuu4SxfUPoqEjGcpZzOPNT3n/7DT7eku/hoO/p1bD1Nf70UikXTs5gVEo8wV1U+FiOUrI2fsqH77zBkm2FXvsbZVXu4LX7fshXl93ADVdPZ0S034mfQctByZ4VvP2vF1mUWeAdlQ0iIuLVjCFDk71sePosskWQED6EpJB4wv0CsRsu6h2llFQdIrt4D/n1p3jlZYYQHTKAhOA+RPqHEmC3Y1r11NaXUFyZxaGSQ5Q09NTVnYl/wED6hw8gJiiCYB9fcNZS6yijtCqbo+XZFNbVfb1L3s8pJoNv+Dt/vq5f46yc8xhv/+wmnt/V/feDLTiBQSmDSeoTS0SQHz40UFsHrYOvAAAgAElEQVRVSWnhEQ4fPEh2fnnb2Xf5+rD5E90/lcH9k4iNDCHQbuKoqaCs4DBZe/eQVVB9UttpGX7RJI9MIzUpjjB/E0dVMbkHd7BtZzblvTxxmFGz+dVf72JikAFYuLL/y513vMTe0/68mATFDSJ1UH8SYiIJCbBjWg5qKkooyDnE/j37yK3y0j0GAdMvjPikASTGxxIdHkJgYAC+NrAaHFRXFJF/NIu9ew9RdK71nrAFEj94JEMH9iU6zB8fZx3lxcfI2rWd3ccqzsh2diIi8vWgoC7iFQK48Bev8fMpTc2oHJt48ru/4MMSfTxFvJeNQd96hj9fn9w4s23VsPGpm/j1R4UKZCIiInJKevEadREv4juMUcN8W8olXTm72Hs2uzOLSJeMoAyunDWgpfzcWfQZ7yxXSBcREZFTp6AuctYZRJw/lwsimzsKOMldv5aDutoX8WImcdOu4oKIlo3TOfDB22z+unblFBERkTOqlzeTEzlNbMO59qczca5czNIv93fSsM0gIHk+d908mdDm6/263Xzw8R41GxLxai5yF/8/5i8+28chIiIiX0cK6iKng+FLzIg5XHbhpdxQup/MtevY9NVX7D1wjMKyKhy2IKISBzNq0iwunzWBhOau9FY9WYue4/2j51gDJRERERER6TEK6iKnlYE9fDATZw9m4uwubmo5KVjzJI/8Z4f21xURERER6cUU1EVOB8tBXb2FBR7t923V5bL+zSd46rX1FGoyXURERESkV9P2bCKni08o/UaMY/SIEQwZPJB+ffoQGxVCoJ8vpqueqrJ8jh7aw47MtaxY/gV7S7QqXUREREREFNRFREREREREvIq2ZxMRERERERHxIgrqIiIiIiIiIl5EQV1ERERERETEiyioi4iIiIiIiHgRBXURERERERERL6KgLiIiIiIiIuJFFNRFREREREREvIiCuoiIiIiIiIgXUVAXERERERER8SI+Z/sAROTcZPabxremD8bXOsyKVz5kb93ZPqKTZIQzet41pEcblG9bxJtf5uE628ckIiIiIr2agnobJgNHPM/dqYlupQYWzqLn+PWqhRRaZ/HQRLyMrU8GVyyYRkDDlxx88yP21p3JD4idoTc9xx+vSmr8rLrK+eKxm/jt8jK6fRRmGEOnXcWCwZBjreKtL/N6/nBFRERERLpBQd2dMZCR8QnHrQcwMMMzGO6/iJU1mmf7+jGJSXmc+0cOwwZADevXXsMLOY6zfFzSGSP0fK6c0Tqg5sxdwsLVJxHSRURERES8kNaouzGD0xkZcuJTYtiGkRYbgnEWjklEjmcjccZ8JjV/Vq1adixexK76s3tUIiIiIiI9RUG9hUlk3ET6tqTxOhzO5vk5PwbHjyXgLB2ZyNlhEj/jTn56bTox9pP464g0rvjJ3czrb+vZw/IfxbzLhuDb9Fl1lX7OwmVdrCv3H8X/3H0b05ODuz/gZviTNOVmfn7TeYRotE5EREREzgCVvjczIhkRn9IycuGqXMpnZRcxIzEEAwO/6AyG+Cwns+GsHqXIGWOEnMe3bpjNtMjZTJq6glee+RuLthXi7OoPbaEMnXUzt94wk0EhBpUhm/ni4aUU9cjKEZOoC69iamxT+LecZH/8JuurOit6tzHgiu9zzUVDsV9wATPefY6nX1lBdk3XhfJ+CZO59oe3cNX4eOyubPJXb+KlXedq1zwREREROVdoRr2J4TuetEh702ybi4qC1SzP20lzLjftYxkZ7Xf2DlDkDDN8KsnamkWl0yCw31S+99u/8ec7r2BoWEcz5AbByTO55fcv8Mdb5zA4xMSqPszWvaWYPTUTbUtmzrwJBDbdn1WzkXc+yOpi8MAXV852dhTWg080aQvu4YlnHubG8xLp8BNtj2X8dffz1FP3840J8fjSQPGuTA7X27QERkREREROO82oA2AQEJvBYFvzJXg1e/J3UFraj4OudFJMA4xQhsUNxSd3C5pUl97AVbKFt/5wK58smsn1372BOWkxDJp+G3+ceAkfvfQEr1S23tYI7M9F197BzfPSiPIxsBqK2bn037zwnw/YUdLlHLyHDILSFzC7f3NYdlLw2Vus7HKqvobslc9xz7p3Sb/ie9x09RT6xaZz3b3PcuG6V/nr82vdHsJOVNrVfPfWbzOlXyAmFjVHVrPwny/w1ppsPJiEFxERERE5ZQrqAASQGj8K36Z/Wc6d7CyqxVW/hd0VFilhBmAjPG4i/YwtHOihi3Wbbx+SwgcRHxxNqE8ANquOmvoiCiv2cajsKBXOU38gwxZBfHgKiSHxhNuDsJsN1NeXU1qVxaGS/RQ6TiVE2fAPGMCAiIHEBUYQ4GMHZyXl1Yc5UryTwzW1PdaF27BF0Td6FANCYgi2GTjqC8kr+4p9JbkKT6eVi7I9H/HcL1eweNICvvOda5ncdxiX/ugpzi+tapyRtg3lO48/Q3i4HcOq5di6t/jnP17n8+zqnu3CbsYz7copRDT3kHPs5f3FW6j19O/rclj/+kNsXDKcWdd/j2/OTiNh0nd4YMw8Sl0GYBA57V6evjKCIBOcpTv56NXn+c+HWynS6JyIiIiInEEK6gC2kYyKCWpdn166iT31FliH2FWYz6Vh8ZiAGTiRtLAXOFB6CottjWAS+8xjevJMxkTFE2C0V0hr4XLksi9nKav2vcvGsorOG2WdwCQkYhqXpFzOxPghRNjMdst1LauC3PxVrMl6i5U5RzwPPEYISUlXM2fQTNLCI2mvz5hl1VJS/BnLdv6b5QUerGvGh+HjXuH2/mGNr4OVxfuf3cri8nCGpPwv16ZcSB/f48/DwlGzjdW7nufdQ7vpdJkyNgaPeom7BsV1sd4jgPRJ75HeyS1cFa/yu2Uvcai7KdSMYdj5I4htcxJVZG3cQHbnB+8Faji29j/8dv2HDJv1bW7+5myGRoQ2vh5GKBFhLsr2fsxrL/6T97cWcDo2t/MdOo8rRvi3LE+pXPsmHx/p/kCTq3QHHz77U5a/P5kFN97EgowkIppq8/3CI/Gty2H9uy/y0hsrOVilLRlFRERE5MxTUAfskRkM922J6eQWbKbYAnCSnbeVquT4xm7PRiIj45NYXHqom8G5kS1wEvPG/5jp0ZF03gfbwLQnkNrvBlKS5jNh0//ybHaRZ7OTtiQmpv2c6wcMJrDdQQC3RzFCSIi7lAVxs7jk0P38atOXdNUmyxYwkXnpdzEjKqLTwGsY/kRGzeHq8y9gwr7f8exX6ynrdrBNZFL6w3w7Ma6D58vAHjCKi8Y+xoiYp3h600fk9FSV9elgG8aVd93LFF+3/825n5fv2ER2lTcfuBtnMbuWL2RR30EkzR1GcPPsdt0BVr/7Dp9sPz0hHSOM866cSXzLx/QYS95ZTflJj29Y1Bxex0fvxDNw4Pc5L76pnN5yUrz9Y975YLVCuoiIiIicNQrq2OifMIHQ5kxrFbA7vzWIO4o3st85gzE+BmDSJ24iUbsPUdDNgGAPuZSbz7+DUQHHzwq7qKvNobCmnHrs+PvFEhUQgm9TyDaMAEL8fNu7yxMY9qHMmvQb5kWHHheiLZyOYgqrC6l2go89kqigaAJMo+lYbAT6hnYxeAC2oOncdMFdjAts21DLsiopqcyn3OHE1zea6KBwt+MPYWDKffzI+DWPbdtMtUdnAuBD35RfMLMlpLuor8unqKYcp0800UER+LcMRNiJ7vsjbnOW8btNa6jw+DGkW8wIhs78Ft/7n0sZHunT5j1g+A9mzl1PM3nuEl558R98uK2oR3s52PpeyvyJIU3va4va7Yt4b8/JDwn495nMgu/exIJJ/Qh073Rn2Iga/x0e+uss1i96kRffXEF2tbdXO4iIiIjI142CujGYkbGxrWXv9VvZWdo6u2k1bGNHiYPRMb4YGJjhExnh/xbLazyfbTN8J3D1pNvahHTLmceuA//lo6yV7K2qajNDb/PtR2qf2UxPuYzhwR6+REYME8b+6riQXktuzlu8v+cjtpTkU++WNwxbBIkxF3Nh6jVMjorq+v59RnJFxo/dQrqFs2Yry3f+m0+PfkVRQ+tz5uOXTNrAG1iQOokYmwH4kzjop1xbeCv/zCn3rDLASGJ0YuPj1Fet5r0tz7My/xi1TX9s9x9GxrA7uKr/IAIMABvR/e7g6pyv+Ee7j+Fk39YbuHXr8f+7SUzK49w/cljTgEAN69dewws5p2Ve+BzlR/yE+dz43euY0j8YExdVWUt5bVMk31wwHn/nDha/fJDUq2eTmjqbWx65iLlr3+Cll95g7dGe6FPgz+grLmeQvXnj9GI+f2cpeScx4W0LSWHqN/6Xb88ZRYyvgeUoIPOd9yhKv5HpSRYFq/7LJ/ZLWJCRwMTr7mHczCtZ8p/n+PfHOzmVFS8iIiIiIt3R67dnM0PTGdlcv4tFffEm9rtXIVul7M7LagnShplKWmx4N7ZoCmTo8B8xJbh1BtJVv4VFn9/GE9s/ZPdxIR3AWZ/NzoN/48ll3+eZPduo6DIgGIT2/SHX9olqeUEtq4DNm3/Mb9e+zPritiEdwHKWcCR3Ia+svInfrH+Pw47O4pQfyUN+zCVhvi0hvbb4LZ767Je8cWhrm5AO0FB3gMxdD/L7tYs42twQz4gmffh8krr1jrNwVS/jpZUPsSSvNaQDOGp38nnm3Tyz9wD1LU9DJBOGXUmS9s/qISbBA6dx04N/56/3f4+LBgRj1GWz6qVfcMtPfs+iHWWNIdyqZO+SP/PTW+7k2U/2UWn50/e8G7jv6Zd49H9nkRLaVa1GF0cRPY35F8c0DaRYOA9+wDvrq7p3J/YYRl/5c/789ye584rRxNhdlHy1kMd+cjP3/eMLjtY1vrka8r/kld/8gNsefoVNBQ5sESO49LY/8/en7uPaCfEdb+cmIiIiItKDenlQtxEdO5GElmDn4FD+Fmra3MZJQeFmt1J3PwYljCXQw0cwg+dweb9YtwCdwxcbfsPHxRVdzzS68tn21T28cDC/89uaqUwbMpnglvOo5/Ceh3gx62BriO1QLXlHnuTxzZ8fd96tjIBLuCw5qaU03lW/lte/fJGddZ2tq3ZRkf8irxw40jQQYWALmcWU7uxFbxXz5dZn2Vzb0UhFFXt3PcnKlpEMA1voDCZHe7ZUQDpn63cNv3n8F1w9PgE/aslZ+w/uv/UWHnkrk8J26tqdpTtY/KfbueWev7PicA2WPZq0ef+Px393A6knXbtjI3nOfMb6N2+cXs3Gd98nqzuz20YQk370FA9/fzqDQkys8p18+MQd/PAXz/DpwfY609dybM1L/N8tt/L7hVsochoE9b+I7/z6Ge6e2p1BOhERERGRk9O7g7oRzYiE5NYnwTrIzoLSEy7cXWWZ7KltDYN+0RkMaa/V+QlM+iTNYGDL/uwuqnP+wbt5HoT01ken3tl5ozF71EwyglvL6l3Vn7Bwzy4PQnqrBmddB8dkIyZpJkN9mu/dyZH9/2RtjSfNz+rIOrSMI813bIQzPC6ly7XwzVyVn7Iit4vnyrmblYf2tHaVN6IYmZDq8WNIx5yHl7LoyzLqCjbw2sM/5Nbf/If1eV29q5wUbXuD391xM7/+12qO1VazdfGH7DvJBetG8CSunN2P5mXkzvxPWLjSw8aKzawqNi76kIP1Fez/5Gl+esudPLlkb5eVKlbNIVY8fze33PkY7+0qxZH3KYvWnPj9ICIiIiLS03r1GnXDbzyjwt1K0qu2sKuynQDq2sWOoiqm9A3BAAyfMYyK8mdTbhcbmhl9GBHbz20goJTMg2t7uNmZjaS48YS1TPO5yD/yEbt7qpOXEcnwuMFu57CPTUezPe5676rcwYFaJ/0CbICN8IgUwo3tFHWZdpyUFqwn24PbFeZnkm8NbaqMsBERMZQoYzv53paoHCt5ZP4MHjnbx+Epq5iVf72DnbV55NV288l05LPx1V9z27J4gopzT2qXBDCJv+Qqzg9rbi1fz973F7G9q60J2juc/a/ywC2LKM4t8WCrQHcWlQc+5pmfrebtaIs8j/cwFBERERE5eb14Rt0gODaDZLfZ7oqCja2zv23Usj9/Z2sXayOEofHD290/vA2fwQwIbX2KLedX7Cru4St9I5J+ETFuQbqE3fn7TzIYtcMczMAwt8GM2j1kdWsrsULcT9kITCDSo79zcawsy6PzcFXu40hD6wtnBg8gTvXJPcJVmtv9kO6mriCX4pPdec5vJPPmDsevuYdcxRoWLjnSzaDdxKqloNsh3Y2zgty8Ss2mi4iIiMgZ0Ytn1IMYEp9G62rmavbk7+pgSymLyoJNHHSlk2I2btMWGpfBAHMTeztJkqZ/H6JsrYnRqjpITk/uWQVAHLGBbqnUOsyxip7bk9sI6NPUub2RGTCXO6+Ye/L35xNCoAFdJh6rgpKq9tYPt8NVSEmdBU1dwQ2faMLtBtQpVp27DMLPv4pL4lo6I3B06VusrdBrKiIiIiJff713Rt0njbSYALft0nays6jj2W6rZgu73UKCGTCekWGdP32GbxhBbv921RXT4znDCCXE123W3lVKWacd3Lt59/ZwgnpwdtowfTxcP15FVYOndQFVVLufsxFIkG/vfWt/LZj9mX3FRIKaq95rt7D4vd1o0zwRERER6Q167Yy6b1QGw+xuAbe+gciE2VzQYcY1CWyow6Ip3BuJjIwfwKKSAx2XZ5s+bZ9gl6ODGftTYNixGe4z6g6cPTgY4Hmw7mkNOD2u32+gwXI/aTs2lb6fdo61j3DV5adnxX3A2PlcOrB5yYWL4pVv8Wn+adrI3HmI1348m9dOz72LiIiIiHRbLw3qdgbEj3fbzgzMgPO4fOx53bgPk/jYCcTsOkBeR8HY1dA2mJv2nn/CLQdOy4Lm2gCjZ0Oq5Wpos663Ie8xfr56Cd3cxfok+GDzeFLcBx/3wQoaenSwQs4wM5ap86cR1TRCZDmz+PDd9VSf3aMSERERETljemd9sDGYtLioUz55MzyDEQEd34tVX9YmXJh+kYT09EyvVUFlfetMo2GGE2bvuQexHGVUuVeV+wQTcEZmq4MI8vH0FQoi0P2crWpqGpTUz1U+g+cyb7R/09CTRdX6N/nw4GmaTRcRERER8UK9MqibYRMZGXjqBd2GmUJaXAQd5VZX7TEK3aZ2jaABJPT4lHou+dXuSTqJPiE9V6xu1Rx/Dn2JPhNB3QghMjCww+e2DTOaCD+3pn3OYkrrFezOSUYok66cQ9/mbyZnHp+98zklGncRERERkV6kF5a+24iLm0is277j5Yf+j/s2baC+y781iUx+lAdHj2564nxJjh9HcNbS9vdGb9jHwXIXYyMbg7NhG8GwKH82dLX/endYxRwqLcAVndA46mJEMCR2ELaC3Se/FZU7136yyp2kRzWuFzb9RpIaarKr9HQHYZM+EQMxD23p8jzM4MH09WkN6q7KQ3RnObPVZn27FrefTbaEWcw/L7RpBNGifs+7LNqhzctFREREpHfpfTPqRiwj4ga4nXgNe/N2eBDSAVyUttlr3cA3KoMhHZWaW8fYkZ/d2mzOCGds/8mEnOyxt8vJ4dyNlLUck0ls0mxSe2oIxipkZ67bvuxGXyb2G9n1HvKnzEZYTDr9uszNNqJjx7oNvDgpK9lBfjdmYBuc7q++jQBf/9MT121xpE2byfTpbv9NO4+BPdlW/5zmz/B5c0n1bd44vYw1Cz8mp+d2GxQREREROSf0uqBu+KeTFmFz25ZtBzsKazz+e1flJnZVuq0J9xlDWrRfR7fm6OGlZLWUjpsEJNzAFfEh3QiCJjaz85fJUbSEdZWulj3HzYDpzE8d6rZHfNdspk8Hx+Qk78gS9rSs+bYRNeBmZkX4d+Pemxi2bjW6M4OmcVFXz5VtCFP6p7Z2prdK2ZHTnWoCF9W1pW7bfpnEh/Y/PR8McwiX33E3d93p9t9PbiQjutd9DNtlRExhwbT4ltfSdeQj3llXjqreRURERKS36WUJwSAkNoNk061MunQTu+u7EQWsLL7KL3CbYQ5iWMLIDkOxq/JD3svOb7m9YSQwefz/MSvSg7BuhJGS8ituGhjX+W1de/hs92oqW07Dl6TU+7hp4EAPwroPkXE3cceYCwno4BZW9Sd8cOho6znYUrk042dcGOphWDcjGJD0XW6Z+iBTu9MbwIhkYtoPGe3f0ds0iJRhd3BRSPP/b+GqXMrnhXWePwbQUHmA3JbnzkZk38sZ7adZ7jPLZMDsBUwIbHrerVq2vPsue3t8P0MREREREe/Xy4J6MMMSRrgtzHeRk7+Z4m5N2TVwMG+LWyd0k+DYiQzo8JmsZteOJ/m8sqF1xtt3NFdc8DQ/Gjmb1ODAE14E0x5PctK3+P60F7hzZDoRXb5KFmVHnuWNY0VuAwIxjBnzZ+6ZdAPpkTH4Hp87jRDiYmaz4Ly/8evJ1zHIt7MHqWXfzif4tKK+6RwMzIDz+cbFT3PriBmktHMOhi2KxJiLmT7qfu6d/S9+PuF6RocGdbOk3MAMuoSbptzLzNgE/N3+2Md/GOeP+T23DE5uHYywSti06x0OdXP5vKtyPdvLna2vj//F3DDlXi7vN57+wTGE+IUS7Nv6X5Ddv7d9cE6/wHSunJPcUnHhLPqUt5e7DYiJiIiIiPQivauZnH0MadFu64+tfHYVHOp2GHAUb2BPwwzGN61NN/3TSQu3sae4/YJrq349b6x9mvDz7yAtwMQADFscw1LuZFjKj6mtPUZBdQUObPj5xhATFI5vy77gHk4pWgWsz3yQSL+HmBcd0hQk/YlP+B++l/BNnI5C8quLqHGC3R5ORGAsQTaz5blwdHzPjXfv2MLCtU8Qcf5PGBfo03QOfRmV+lNGpd5FXW0OhTXl1OFHoG844YER+BunMCttHWFrTh1D+wzCN/gCFpw/mbl1eeRXl+PyiSYmOPK4+3dRfPhp3jha0v1SaSuLVXu+4MIJFxJqABj4h0zh8vFTuLydm7sqXuV3y17ikGqye4hJ3LSrmRLZNPxhNXDww4Vker4iRURERETka6VXTQz6RmUwxL07eP1mdpaeRKcqx1Z2FNW1BkIjnpFxAzt9Mh0VH/DcygdZWlR83PppE3//viRFDiM5MpXE4Ai3kA6WVUNlnWet7izHLj5afRcvZ+2l+rhO5jZ7DAlhQ0mOHEpSSDzBbiEdXFTXVXS5rttZuZQXV/6aDwsKjxs+MPHzTyQxYhjJEcnEBx0fogEsGuoKqHB5mm4dHN7zKK/lFDQdl4ndL4HEiCEkhUQdd/8NFB97kqc2f+7WVK87LMqOPMFzOzZQ4vHxSY+xD+XyuaNaKiZcVV+y8KPuD6CJiIiIiHxd9KIZdV8GxY+jtcG2RV3hJg6cVEfpMnbl78MVP7Kp8ZVJbPxE4nbtI6eTnOesXsPbq7axrs88ZgyaxZjIuA5mnS1cDXnsz/mEVfsWsaG0Gw21nNms3fwjvjp0CZcMnsukhBTC2oRyt0exKsgrWMWaAwtZmZuNJyu7nTUbePfz77M+4XKmD5rF2OhEAjucOXfhqM1iT/4Gth1bzobcA27r6D3gOsIX6+6keMgtXDt4EvF223HnYVFfs511u19g0cGd3bvvE1Swf899PHBsPBP7XcjI6FT6BMcS6huA3Wj/+ZOeYBA6aT4z+rRsnE7esrf4olQDJiIiIiLSexlDhibrivgs8fFNJCliEPGBMYT6+mKz6qmuK6KwYh+Hyo5S4Tz1l8awRRIfPpi+wQmE+QXhZzioc5RTUpnFoZL9FDpObe8rmz2h8RyCYwn18cOHBuoclZTXHiG37CA51RUeFu/7MHzcK9zeP6yxMsHK4v3PbmVxmavpPGLpH51G/9AYgmxQX1dIfvkO9hUfo1rv4HOXLYmrf/8s3x3qiwFYddt5/rafslB7somIiIhIL9aLZtS9T0P9UbLyjpJ1Gh/DchaTU/QlOUWn5/6djhwO5udwMP/03H8zy5nPwbxlHMw7vY8jZ5b/yCu5PMW3qWLBRdnqN1maq5AuIiIiIr1br1qjLiJexIzmwvmXENO0Y5/lOszHi9ad4hIGEREREZFzn4K6iJwVtgGXccW4wKbZdIvazIW8v18bp4uIiIiIqPRdRM4K54F/ctu8f57twxARERER8TqaURcRERERERHxIgrqIiIiIiIiIl5EQV1ERERERETEiyioi4iIiIiIiHgRY8jQZG2GJCIiIiIiIuIlNKMuIiIiIiIi4kUU1EVERERERES8iIK6iIiIiIiIiBdRUBcRERERERHxIgrqIiIiIiIiIl5EQV1ERERERETEiyioi4iIiIiIiHgRBXURERERERERL6KgLiIiIiIiIuJFFNRFREREREREvIiCuoiIiIiIiIgXUVAXERERERER8SIK6iIiIiIiIiJeREFdRERERERExIsoqIuIiIiIiIh4EQV1ERERERERES+ioC4iIiIiIiLiRRTURURERERERLyIgrqIiIiIiIiIF1FQFxEREREREfEiCuoiIiIiIiIiXkRBXURERERERMSLKKiLiIiIiIiIeBEFdREREREREREvoqAuIiIiIiIi4kUU1EVERERERES8iIK6iIiIiIiIiBdRUBcRERERERHxIgrqIiIiIiIiIl5EQV1ERERERETEiyioi4iIiIiIiHgRBXURERERERERL6KgLiIiIiIiIuJFFNRFREREREREvIiCuoiIiIiIiIgXUVAXERERERER8SIK6iIiIiIiIiJeREFdRERERERExIsoqIuIiIiIiIh4EQV1ERERERERES+ioC4iIiIiIiLiRRTURURERERERLyIgrqIiIiIiIiIF1FQFxEREREREfEiCuoiIiIiIiIiXkRBXURERERERMSLKKiLiIiIiIiIeBEFdREREREREREvoqAuIiIiIiIi4kUU1EVERERERES8iIK6iIiIiIiIiBdRUBcRERERERHxIgrqIiIiIiIiIl5EQRi4fwYAAAAPSURBVF1ERERERETEi/x/Qz64MgYzILIAAAAASUVORK5CYII=;" vertex="1" parent="1">
          <mxGeometry x="-540" y="140" width="1190.5" height="360" as="geometry" />
        </mxCell>
        <mxCell id="vG5wx0nCRTF6qHrkoxWq-2" value="" style="shape=curlyBracket;whiteSpace=wrap;html=1;rounded=1;flipH=1;labelPosition=right;verticalLabelPosition=middle;align=left;verticalAlign=middle;" vertex="1" parent="1">
          <mxGeometry x="250" y="190" width="20" height="60" as="geometry" />
        </mxCell>
        <mxCell id="vG5wx0nCRTF6qHrkoxWq-3" value="" style="shape=curlyBracket;whiteSpace=wrap;html=1;rounded=1;flipH=1;labelPosition=right;verticalLabelPosition=middle;align=left;verticalAlign=middle;" vertex="1" parent="1">
          <mxGeometry x="250" y="260" width="20" height="160" as="geometry" />
        </mxCell>
        <mxCell id="vG5wx0nCRTF6qHrkoxWq-4" value="&lt;font style=&quot;font-size: 30px;&quot; face=&quot;arial&quot;&gt;&lt;b&gt;Запрос URL Версия&lt;/b&gt;&lt;/font&gt;" style="text;html=1;align=left;verticalAlign=middle;resizable=0;points=[];autosize=1;strokeColor=none;fillColor=none;fontSize=12;fontColor=#1d2d3e;fontFamily=Helvetica;" vertex="1" parent="1">
          <mxGeometry x="280" y="195" width="320" height="50" as="geometry" />
        </mxCell>
        <mxCell id="vG5wx0nCRTF6qHrkoxWq-5" value="&lt;font style=&quot;font-size: 30px;&quot; face=&quot;arial&quot;&gt;&lt;b&gt;Заголовки&lt;br&gt;(Headers)&lt;/b&gt;&lt;/font&gt;" style="text;html=1;align=left;verticalAlign=middle;resizable=0;points=[];autosize=1;strokeColor=none;fillColor=none;fontSize=12;fontColor=#1d2d3e;fontFamily=Helvetica;" vertex="1" parent="1">
          <mxGeometry x="280" y="295" width="180" height="90" as="geometry" />
        </mxCell>
      </root>
    </mxGraphModel>
  </diagram>
</mxfile>
